<svg width="134" height="28" viewBox="0 0 134 28" fill="none" xmlns="http://www.w3.org/2000/svg">
<path d="M24.5 18.6667V9.33336C24.4996 8.92418 24.3916 8.52231 24.1868 8.16805C23.982 7.8138 23.6877 7.51962 23.3333 7.31503L15.1667 2.64836C14.812 2.44357 14.4096 2.33575 14 2.33575C13.5904 2.33575 13.188 2.44357 12.8333 2.64836L4.66667 7.31503C4.31231 7.51962 4.01798 7.8138 3.81321 8.16805C3.60843 8.52231 3.50042 8.92418 3.5 9.33336V18.6667C3.50042 19.0759 3.60843 19.4777 3.81321 19.832C4.01798 20.1863 4.31231 20.4804 4.66667 20.685L12.8333 25.3517C13.188 25.5565 13.5904 25.6643 14 25.6643C14.4096 25.6643 14.812 25.5565 15.1667 25.3517L23.3333 20.685C23.6877 20.4804 23.982 20.1863 24.1868 19.832C24.3916 19.4777 24.4996 19.0759 24.5 18.6667Z" stroke="#4B8282" stroke-width="2" stroke-linecap="round" stroke-linejoin="round"/>
<path d="M3.81494 8.12L13.9999 14.0117L24.1849 8.12" stroke="#4B8282" stroke-width="2" stroke-linecap="round" stroke-linejoin="round"/>
<path d="M14 25.76V14" stroke="#4B8282" stroke-width="2" stroke-linecap="round" stroke-linejoin="round"/>
<path d="M32.6919 7.39997H35.0319V18.02H41.6199V20H32.6919V7.39997Z" fill="#4B8282"/>
<path d="M52.1994 15.248C52.1994 15.404 52.1874 15.626 52.1634 15.914H44.6214C44.7534 16.622 45.0954 17.186 45.6474 17.606C46.2114 18.014 46.9074 18.218 47.7354 18.218C48.7914 18.218 49.6614 17.87 50.3454 17.174L51.5514 18.56C51.1194 19.076 50.5734 19.466 49.9134 19.73C49.2534 19.994 48.5094 20.126 47.6814 20.126C46.6254 20.126 45.6954 19.916 44.8914 19.496C44.0874 19.076 43.4634 18.494 43.0194 17.75C42.5874 16.994 42.3714 16.142 42.3714 15.194C42.3714 14.258 42.5814 13.418 43.0014 12.674C43.4334 11.918 44.0274 11.33 44.7834 10.91C45.5394 10.49 46.3914 10.28 47.3394 10.28C48.2754 10.28 49.1094 10.49 49.8414 10.91C50.5854 11.318 51.1614 11.9 51.5694 12.656C51.9894 13.4 52.1994 14.264 52.1994 15.248ZM47.3394 12.08C46.6194 12.08 46.0074 12.296 45.5034 12.728C45.0114 13.148 44.7114 13.712 44.6034 14.42H50.0574C49.9614 13.724 49.6674 13.16 49.1754 12.728C48.6834 12.296 48.0714 12.08 47.3394 12.08Z" fill="#4B8282"/>
<path d="M63.9007 10.388V18.542C63.9007 21.926 62.1727 23.618 58.7167 23.618C57.7927 23.618 56.9167 23.498 56.0887 23.258C55.2607 23.03 54.5767 22.694 54.0367 22.25L55.0447 20.558C55.4647 20.906 55.9927 21.182 56.6287 21.386C57.2767 21.602 57.9307 21.71 58.5907 21.71C59.6467 21.71 60.4207 21.47 60.9127 20.99C61.4047 20.51 61.6507 19.778 61.6507 18.794V18.29C61.2667 18.71 60.7987 19.028 60.2467 19.244C59.6947 19.46 59.0887 19.568 58.4287 19.568C57.5167 19.568 56.6887 19.376 55.9447 18.992C55.2127 18.596 54.6307 18.044 54.1987 17.336C53.7787 16.628 53.5687 15.818 53.5687 14.906C53.5687 13.994 53.7787 13.19 54.1987 12.494C54.6307 11.786 55.2127 11.24 55.9447 10.856C56.6887 10.472 57.5167 10.28 58.4287 10.28C59.1247 10.28 59.7547 10.394 60.3187 10.622C60.8947 10.85 61.3747 11.198 61.7587 11.666V10.388H63.9007ZM58.7707 17.66C59.6227 17.66 60.3187 17.408 60.8587 16.904C61.4107 16.388 61.6867 15.722 61.6867 14.906C61.6867 14.102 61.4107 13.448 60.8587 12.944C60.3187 12.44 59.6227 12.188 58.7707 12.188C57.9067 12.188 57.1987 12.44 56.6467 12.944C56.1067 13.448 55.8367 14.102 55.8367 14.906C55.8367 15.722 56.1067 16.388 56.6467 16.904C57.1987 17.408 57.9067 17.66 58.7707 17.66Z" fill="#4B8282"/>
<path d="M69.0007 11.792C69.6487 10.784 70.7887 10.28 72.4207 10.28V12.422C72.2287 12.386 72.0547 12.368 71.8987 12.368C71.0227 12.368 70.3387 12.626 69.8467 13.142C69.3547 13.646 69.1087 14.378 69.1087 15.338V20H66.8587V10.388H69.0007V11.792Z" fill="#4B8282"/>
<path d="M78.5615 20.126C77.5895 20.126 76.7135 19.916 75.9335 19.496C75.1535 19.076 74.5415 18.494 74.0975 17.75C73.6655 16.994 73.4495 16.142 73.4495 15.194C73.4495 14.246 73.6655 13.4 74.0975 12.656C74.5415 11.912 75.1535 11.33 75.9335 10.91C76.7135 10.49 77.5895 10.28 78.5615 10.28C79.5455 10.28 80.4275 10.49 81.2075 10.91C81.9875 11.33 82.5935 11.912 83.0255 12.656C83.4695 13.4 83.6915 14.246 83.6915 15.194C83.6915 16.142 83.4695 16.994 83.0255 17.75C82.5935 18.494 81.9875 19.076 81.2075 19.496C80.4275 19.916 79.5455 20.126 78.5615 20.126ZM78.5615 18.2C79.3895 18.2 80.0735 17.924 80.6135 17.372C81.1535 16.82 81.4235 16.094 81.4235 15.194C81.4235 14.294 81.1535 13.568 80.6135 13.016C80.0735 12.464 79.3895 12.188 78.5615 12.188C77.7335 12.188 77.0495 12.464 76.5095 13.016C75.9815 13.568 75.7175 14.294 75.7175 15.194C75.7175 16.094 75.9815 16.82 76.5095 17.372C77.0495 17.924 77.7335 18.2 78.5615 18.2Z" fill="#4B8282"/>
<path d="M88.8131 20.126C88.0331 20.126 87.2711 20.024 86.5271 19.82C85.7831 19.616 85.1891 19.358 84.7451 19.046L85.6091 17.336C86.0411 17.624 86.5571 17.858 87.1571 18.038C87.7691 18.206 88.3691 18.29 88.9571 18.29C90.3011 18.29 90.9731 17.936 90.9731 17.228C90.9731 16.892 90.7991 16.658 90.4511 16.526C90.1151 16.394 89.5691 16.268 88.8131 16.148C88.0211 16.028 87.3731 15.89 86.8691 15.734C86.3771 15.578 85.9451 15.308 85.5731 14.924C85.2131 14.528 85.0331 13.982 85.0331 13.286C85.0331 12.374 85.4111 11.648 86.1671 11.108C86.9351 10.556 87.9671 10.28 89.2631 10.28C89.9231 10.28 90.5831 10.358 91.2431 10.514C91.9031 10.658 92.4431 10.856 92.8631 11.108L91.9991 12.818C91.1831 12.338 90.2651 12.098 89.2451 12.098C88.5851 12.098 88.0811 12.2 87.7331 12.404C87.3971 12.596 87.2291 12.854 87.2291 13.178C87.2291 13.538 87.4091 13.796 87.7691 13.952C88.1411 14.096 88.7111 14.234 89.4791 14.366C90.2471 14.486 90.8771 14.624 91.3691 14.78C91.8611 14.936 92.2811 15.2 92.6291 15.572C92.9891 15.944 93.1691 16.472 93.1691 17.156C93.1691 18.056 92.7791 18.776 91.9991 19.316C91.2191 19.856 90.1571 20.126 88.8131 20.126Z" fill="#4B8282"/>
<path d="M100.297 7.39997H102.637V18.02H109.225V20H100.297V7.39997Z" fill="#4B8282"/>
<path d="M111.073 7.39997H113.413V18.02H120.001V20H111.073V7.39997Z" fill="#4B8282"/>
<path d="M127.452 20.18C126.18 20.18 125.028 19.904 123.996 19.352C122.976 18.788 122.172 18.014 121.584 17.03C121.008 16.046 120.72 14.936 120.72 13.7C120.72 12.464 121.014 11.354 121.602 10.37C122.19 9.38597 122.994 8.61797 124.014 8.06597C125.046 7.50197 126.198 7.21997 127.47 7.21997C128.502 7.21997 129.444 7.39997 130.296 7.75997C131.148 8.11997 131.868 8.64197 132.456 9.32597L130.944 10.748C130.032 9.76397 128.91 9.27197 127.578 9.27197C126.714 9.27197 125.94 9.46397 125.256 9.84797C124.572 10.22 124.038 10.742 123.654 11.414C123.27 12.086 123.078 12.848 123.078 13.7C123.078 14.552 123.27 15.314 123.654 15.986C124.038 16.658 124.572 17.186 125.256 17.57C125.94 17.942 126.714 18.128 127.578 18.128C128.91 18.128 130.032 17.63 130.944 16.634L132.456 18.074C131.868 18.758 131.142 19.28 130.278 19.64C129.426 20 128.484 20.18 127.452 20.18Z" fill="#4B8282"/>
</svg>
