<svg width="175" height="28" viewBox="0 0 175 28" fill="none" xmlns="http://www.w3.org/2000/svg">
<path d="M25 18.6666V9.3333C24.9996 8.92412 24.8916 8.52225 24.6868 8.16799C24.482 7.81373 24.1877 7.51956 23.8333 7.31497L15.6667 2.6483C15.312 2.44351 14.9096 2.33569 14.5 2.33569C14.0904 2.33569 13.688 2.44351 13.3333 2.6483L5.16667 7.31497C4.81231 7.51956 4.51798 7.81373 4.31321 8.16799C4.10843 8.52225 4.00042 8.92412 4 9.3333V18.6666C4.00042 19.0758 4.10843 19.4777 4.31321 19.8319C4.51798 20.1862 4.81231 20.4804 5.16667 20.685L13.3333 25.3516C13.688 25.5564 14.0904 25.6642 14.5 25.6642C14.9096 25.6642 15.312 25.5564 15.6667 25.3516L23.8333 20.685C24.1877 20.4804 24.482 20.1862 24.6868 19.8319C24.8916 19.4777 24.9996 19.0758 25 18.6666Z" stroke="#4B8282" stroke-width="2" stroke-linecap="round" stroke-linejoin="round"/>
<path d="M9.25 4.91168L14.5 7.94502L19.75 4.91168" stroke="#4B8282" stroke-width="2" stroke-linecap="round" stroke-linejoin="round"/>
<path d="M9.25 23.0883V17.0333L4 14" stroke="#4B8282" stroke-width="2" stroke-linecap="round" stroke-linejoin="round"/>
<path d="M25 14L19.75 17.0333V23.0883" stroke="#4B8282" stroke-width="2" stroke-linecap="round" stroke-linejoin="round"/>
<path d="M4.31494 8.12L14.4999 14.0117L24.6849 8.12" stroke="#4B8282" stroke-width="2" stroke-linecap="round" stroke-linejoin="round"/>
<path d="M14.5 25.76V14" stroke="#4B8282" stroke-width="2" stroke-linecap="round" stroke-linejoin="round"/>
<path d="M39.2219 20.744L36.4499 15.848H35.2619V20.744H32.7419V8.18H37.4579C38.4299 8.18 39.2579 8.354 39.9419 8.702C40.6259 9.038 41.1359 9.5 41.4719 10.088C41.8199 10.664 41.9939 11.312 41.9939 12.032C41.9939 12.86 41.7539 13.61 41.2739 14.282C40.7939 14.942 40.0799 15.398 39.1319 15.65L42.1379 20.744H39.2219ZM35.2619 13.958H37.3679C38.0519 13.958 38.5619 13.796 38.8979 13.472C39.2339 13.136 39.4019 12.674 39.4019 12.086C39.4019 11.51 39.2339 11.066 38.8979 10.754C38.5619 10.43 38.0519 10.268 37.3679 10.268H35.2619V13.958Z" fill="#4B8282"/>
<path d="M51.9772 18.35H46.9732L46.1452 20.744H43.4992L48.0172 8.162H50.9512L55.4692 20.744H52.8052L51.9772 18.35ZM51.2932 16.334L49.4752 11.078L47.6572 16.334H51.2932Z" fill="#4B8282"/>
<path d="M67.148 8.18L62.9 16.37V20.744H60.38V16.37L56.114 8.18H58.958L61.658 13.922L64.34 8.18H67.148Z" fill="#4B8282"/>
<path d="M79.3473 20.744H76.8273L71.1213 12.122V20.744H68.6013V8.162H71.1213L76.8273 16.802V8.162H79.3473V20.744Z" fill="#4B8282"/>
<path d="M87.6696 20.87C86.4936 20.87 85.4136 20.594 84.4296 20.042C83.4456 19.49 82.6656 18.728 82.0896 17.756C81.5136 16.772 81.2256 15.662 81.2256 14.426C81.2256 13.202 81.5136 12.104 82.0896 11.132C82.6656 10.148 83.4456 9.38 84.4296 8.828C85.4136 8.276 86.4936 8 87.6696 8C88.8576 8 89.9376 8.276 90.9096 8.828C91.8936 9.38 92.6676 10.148 93.2316 11.132C93.8076 12.104 94.0956 13.202 94.0956 14.426C94.0956 15.662 93.8076 16.772 93.2316 17.756C92.6676 18.728 91.8936 19.49 90.9096 20.042C89.9256 20.594 88.8456 20.87 87.6696 20.87ZM87.6696 18.62C88.4256 18.62 89.0916 18.452 89.6676 18.116C90.2436 17.768 90.6936 17.276 91.0176 16.64C91.3416 16.004 91.5036 15.266 91.5036 14.426C91.5036 13.586 91.3416 12.854 91.0176 12.23C90.6936 11.594 90.2436 11.108 89.6676 10.772C89.0916 10.436 88.4256 10.268 87.6696 10.268C86.9136 10.268 86.2416 10.436 85.6536 10.772C85.0776 11.108 84.6276 11.594 84.3036 12.23C83.9796 12.854 83.8176 13.586 83.8176 14.426C83.8176 15.266 83.9796 16.004 84.3036 16.64C84.6276 17.276 85.0776 17.768 85.6536 18.116C86.2416 18.452 86.9136 18.62 87.6696 18.62Z" fill="#4B8282"/>
<path d="M102.45 20.744L99.6785 15.848H98.4905V20.744H95.9705V8.18H100.686C101.658 8.18 102.486 8.354 103.17 8.702C103.854 9.038 104.364 9.5 104.7 10.088C105.048 10.664 105.222 11.312 105.222 12.032C105.222 12.86 104.982 13.61 104.502 14.282C104.022 14.942 103.308 15.398 102.36 15.65L105.366 20.744H102.45ZM98.4905 13.958H100.596C101.28 13.958 101.79 13.796 102.126 13.472C102.462 13.136 102.63 12.674 102.63 12.086C102.63 11.51 102.462 11.066 102.126 10.754C101.79 10.43 101.28 10.268 100.596 10.268H98.4905V13.958Z" fill="#4B8282"/>
<path d="M120.539 11.96C120.251 11.432 119.855 11.03 119.351 10.754C118.847 10.478 118.259 10.34 117.587 10.34C116.843 10.34 116.183 10.508 115.607 10.844C115.031 11.18 114.581 11.66 114.257 12.284C113.933 12.908 113.771 13.628 113.771 14.444C113.771 15.284 113.933 16.016 114.257 16.64C114.593 17.264 115.055 17.744 115.643 18.08C116.231 18.416 116.915 18.584 117.695 18.584C118.655 18.584 119.441 18.332 120.053 17.828C120.665 17.312 121.067 16.598 121.259 15.686H116.939V13.76H123.743V15.956C123.575 16.832 123.215 17.642 122.663 18.386C122.111 19.13 121.397 19.73 120.521 20.186C119.657 20.63 118.685 20.852 117.605 20.852C116.393 20.852 115.295 20.582 114.311 20.042C113.339 19.49 112.571 18.728 112.007 17.756C111.455 16.784 111.179 15.68 111.179 14.444C111.179 13.208 111.455 12.104 112.007 11.132C112.571 10.148 113.339 9.386 114.311 8.846C115.295 8.294 116.387 8.018 117.587 8.018C119.003 8.018 120.233 8.366 121.277 9.062C122.321 9.746 123.041 10.712 123.437 11.96H120.539Z" fill="#4B8282"/>
<path d="M132.087 20.744L129.315 15.848H128.127V20.744H125.607V8.18H130.323C131.295 8.18 132.123 8.354 132.807 8.702C133.491 9.038 134.001 9.5 134.337 10.088C134.685 10.664 134.859 11.312 134.859 12.032C134.859 12.86 134.619 13.61 134.139 14.282C133.659 14.942 132.945 15.398 131.997 15.65L135.003 20.744H132.087ZM128.127 13.958H130.233C130.917 13.958 131.427 13.796 131.763 13.472C132.099 13.136 132.267 12.674 132.267 12.086C132.267 11.51 132.099 11.066 131.763 10.754C131.427 10.43 130.917 10.268 130.233 10.268H128.127V13.958Z" fill="#4B8282"/>
<path d="M142.97 20.87C141.794 20.87 140.714 20.594 139.73 20.042C138.746 19.49 137.966 18.728 137.39 17.756C136.814 16.772 136.526 15.662 136.526 14.426C136.526 13.202 136.814 12.104 137.39 11.132C137.966 10.148 138.746 9.38 139.73 8.828C140.714 8.276 141.794 8 142.97 8C144.158 8 145.238 8.276 146.21 8.828C147.194 9.38 147.968 10.148 148.532 11.132C149.108 12.104 149.396 13.202 149.396 14.426C149.396 15.662 149.108 16.772 148.532 17.756C147.968 18.728 147.194 19.49 146.21 20.042C145.226 20.594 144.146 20.87 142.97 20.87ZM142.97 18.62C143.726 18.62 144.392 18.452 144.968 18.116C145.544 17.768 145.994 17.276 146.318 16.64C146.642 16.004 146.804 15.266 146.804 14.426C146.804 13.586 146.642 12.854 146.318 12.23C145.994 11.594 145.544 11.108 144.968 10.772C144.392 10.436 143.726 10.268 142.97 10.268C142.214 10.268 141.542 10.436 140.954 10.772C140.378 11.108 139.928 11.594 139.604 12.23C139.28 12.854 139.118 13.586 139.118 14.426C139.118 15.266 139.28 16.004 139.604 16.64C139.928 17.276 140.378 17.768 140.954 18.116C141.542 18.452 142.214 18.62 142.97 18.62Z" fill="#4B8282"/>
<path d="M153.755 8.18V15.956C153.755 16.808 153.977 17.462 154.421 17.918C154.865 18.362 155.489 18.584 156.293 18.584C157.109 18.584 157.739 18.362 158.183 17.918C158.627 17.462 158.849 16.808 158.849 15.956V8.18H161.387V15.938C161.387 17.006 161.153 17.912 160.685 18.656C160.229 19.388 159.611 19.94 158.831 20.312C158.063 20.684 157.205 20.87 156.257 20.87C155.321 20.87 154.469 20.684 153.701 20.312C152.945 19.94 152.345 19.388 151.901 18.656C151.457 17.912 151.235 17.006 151.235 15.938V8.18H153.755Z" fill="#4B8282"/>
<path d="M172.984 12.068C172.984 12.74 172.822 13.37 172.498 13.958C172.186 14.546 171.688 15.02 171.004 15.38C170.332 15.74 169.48 15.92 168.448 15.92H166.342V20.744H163.822V8.18H168.448C169.42 8.18 170.248 8.348 170.932 8.684C171.616 9.02 172.126 9.482 172.462 10.07C172.81 10.658 172.984 11.324 172.984 12.068ZM168.34 13.886C169.036 13.886 169.552 13.73 169.888 13.418C170.224 13.094 170.392 12.644 170.392 12.068C170.392 10.844 169.708 10.232 168.34 10.232H166.342V13.886H168.34Z" fill="#4B8282"/>
</svg>
