<svg width="121" height="22" viewBox="0 0 121 22" fill="none" xmlns="http://www.w3.org/2000/svg">
<path d="M0 9.91675L20.6259 0.166748L10.8558 20.7501L8.68461 12.0834L0 9.91675Z" fill="#4B8282"/>
<path d="M33.3821 6.22801C34.4087 6.22801 35.3094 6.42868 36.0841 6.83001C36.8681 7.23135 37.4701 7.80535 37.8901 8.55201C38.3194 9.28935 38.5341 10.148 38.5341 11.128C38.5341 12.108 38.3194 12.9667 37.8901 13.704C37.4701 14.432 36.8681 14.9967 36.0841 15.398C35.3094 15.7993 34.4087 16 33.3821 16H29.9661V6.22801H33.3821ZM33.3121 14.334C34.3387 14.334 35.1321 14.054 35.6921 13.494C36.2521 12.934 36.5321 12.1453 36.5321 11.128C36.5321 10.1107 36.2521 9.31735 35.6921 8.74801C35.1321 8.16935 34.3387 7.88001 33.3121 7.88001H31.9261V14.334H33.3121Z" fill="#4B8282"/>
<path d="M43.4452 16.126C42.6986 16.126 42.0266 15.9627 41.4292 15.636C40.8319 15.3 40.3606 14.8287 40.0152 14.222C39.6792 13.6153 39.5112 12.9153 39.5112 12.122C39.5112 11.3287 39.6839 10.6287 40.0292 10.022C40.3839 9.41535 40.8646 8.94868 41.4712 8.62201C42.0779 8.28601 42.7546 8.11801 43.5012 8.11801C44.2479 8.11801 44.9246 8.28601 45.5312 8.62201C46.1379 8.94868 46.6139 9.41535 46.9592 10.022C47.3139 10.6287 47.4912 11.3287 47.4912 12.122C47.4912 12.9153 47.3092 13.6153 46.9452 14.222C46.5906 14.8287 46.1052 15.3 45.4892 15.636C44.8826 15.9627 44.2012 16.126 43.4452 16.126ZM43.4452 14.418C43.7999 14.418 44.1312 14.334 44.4392 14.166C44.7566 13.9887 45.0086 13.7273 45.1952 13.382C45.3819 13.0367 45.4752 12.6167 45.4752 12.122C45.4752 11.3847 45.2792 10.82 44.8872 10.428C44.5046 10.0267 44.0332 9.82601 43.4732 9.82601C42.9132 9.82601 42.4419 10.0267 42.0592 10.428C41.6859 10.82 41.4992 11.3847 41.4992 12.122C41.4992 12.8593 41.6812 13.4287 42.0452 13.83C42.4186 14.222 42.8852 14.418 43.4452 14.418Z" fill="#4B8282"/>
<path d="M53.227 8.13201C54.151 8.13201 54.8976 8.42601 55.467 9.01401C56.0363 9.59268 56.321 10.4047 56.321 11.45V16H54.361V11.716C54.361 11.1 54.207 10.6287 53.899 10.302C53.591 9.96601 53.171 9.79801 52.639 9.79801C52.0976 9.79801 51.6683 9.96601 51.351 10.302C51.043 10.6287 50.889 11.1 50.889 11.716V16H48.929V8.24401H50.889V9.21001C51.1503 8.87401 51.4816 8.61268 51.883 8.42601C52.2936 8.23001 52.7416 8.13201 53.227 8.13201Z" fill="#4B8282"/>
<path d="M62.4828 8.13201C63.4068 8.13201 64.1535 8.42601 64.7228 9.01401C65.2921 9.59268 65.5768 10.4047 65.5768 11.45V16H63.6168V11.716C63.6168 11.1 63.4628 10.6287 63.1548 10.302C62.8468 9.96601 62.4268 9.79801 61.8948 9.79801C61.3535 9.79801 60.9241 9.96601 60.6068 10.302C60.2988 10.6287 60.1448 11.1 60.1448 11.716V16H58.1848V8.24401H60.1448V9.21001C60.4061 8.87401 60.7375 8.61268 61.1388 8.42601C61.5495 8.23001 61.9975 8.13201 62.4828 8.13201Z" fill="#4B8282"/>
<path d="M74.6507 11.954C74.6507 12.234 74.632 12.486 74.5947 12.71H68.9247C68.9713 13.27 69.1673 13.7087 69.5127 14.026C69.858 14.3433 70.2827 14.502 70.7867 14.502C71.5147 14.502 72.0327 14.1893 72.3407 13.564H74.4547C74.2307 14.3107 73.8013 14.9267 73.1667 15.412C72.532 15.888 71.7527 16.126 70.8287 16.126C70.082 16.126 69.41 15.9627 68.8127 15.636C68.2247 15.3 67.7627 14.8287 67.4267 14.222C67.1 13.6153 66.9367 12.9153 66.9367 12.122C66.9367 11.3193 67.1 10.6147 67.4267 10.008C67.7533 9.40135 68.2107 8.93468 68.7987 8.60801C69.3867 8.28135 70.0633 8.11801 70.8287 8.11801C71.566 8.11801 72.224 8.27668 72.8027 8.59401C73.3907 8.91135 73.8433 9.36401 74.1607 9.95201C74.4873 10.5307 74.6507 11.198 74.6507 11.954ZM72.6207 11.394C72.6113 10.89 72.4293 10.4887 72.0747 10.19C71.72 9.88201 71.286 9.72801 70.7727 9.72801C70.2873 9.72801 69.8767 9.87735 69.5407 10.176C69.214 10.4653 69.0133 10.8713 68.9387 11.394H72.6207Z" fill="#4B8282"/>
<path d="M78.0413 5.64001V16H76.0813V5.64001H78.0413Z" fill="#4B8282"/>
<path d="M81.9378 5.64001V16H79.9778V5.64001H81.9378Z" fill="#4B8282"/>
<path d="M91.2943 8.24401L86.4923 19.668H84.4063L86.0863 15.804L82.9783 8.24401H85.1763L87.1783 13.662L89.2083 8.24401H91.2943Z" fill="#4B8282"/>
<path d="M102.813 9.25201C102.813 9.77468 102.687 10.2647 102.435 10.722C102.192 11.1793 101.805 11.548 101.273 11.828C100.75 12.108 100.087 12.248 99.2848 12.248H97.6468V16H95.6868V6.22801H99.2848C100.041 6.22801 100.685 6.35868 101.217 6.62001C101.749 6.88135 102.145 7.24068 102.407 7.69801C102.677 8.15535 102.813 8.67335 102.813 9.25201ZM99.2008 10.666C99.7421 10.666 100.143 10.5447 100.405 10.302C100.666 10.05 100.797 9.70001 100.797 9.25201C100.797 8.30001 100.265 7.82401 99.2008 7.82401H97.6468V10.666H99.2008Z" fill="#4B8282"/>
<path d="M106.164 14.446H109.384V16H104.204V6.22801H106.164V14.446Z" fill="#4B8282"/>
<path d="M110.154 11.1C110.154 10.1387 110.369 9.28001 110.798 8.52401C111.237 7.75868 111.829 7.16601 112.576 6.74601C113.332 6.31668 114.177 6.10201 115.11 6.10201C116.202 6.10201 117.159 6.38201 117.98 6.94201C118.801 7.50201 119.375 8.27668 119.702 9.26601H117.448C117.224 8.79935 116.907 8.44935 116.496 8.21601C116.095 7.98268 115.628 7.86601 115.096 7.86601C114.527 7.86601 114.018 8.00135 113.57 8.27201C113.131 8.53335 112.786 8.90668 112.534 9.39201C112.291 9.87735 112.17 10.4467 112.17 11.1C112.17 11.744 112.291 12.3133 112.534 12.808C112.786 13.2933 113.131 13.6713 113.57 13.942C114.018 14.2033 114.527 14.334 115.096 14.334C115.628 14.334 116.095 14.2173 116.496 13.984C116.907 13.7413 117.224 13.3867 117.448 12.92H119.702C119.375 13.9187 118.801 14.698 117.98 15.258C117.168 15.8087 116.211 16.084 115.11 16.084C114.177 16.084 113.332 15.874 112.576 15.454C111.829 15.0247 111.237 14.432 110.798 13.676C110.369 12.92 110.154 12.0613 110.154 11.1Z" fill="#4B8282"/>
</svg>
