<svg width="133" height="24" viewBox="0 0 133 24" fill="none" xmlns="http://www.w3.org/2000/svg">
<path d="M23.3999 14.39L12.7499 22.13L2.0999 14.39C1.95713 14.285 1.85122 14.1376 1.79733 13.9687C1.74345 13.7999 1.74435 13.6183 1.7999 13.45L3.0199 9.67002L5.4599 2.16002C5.48357 2.09883 5.52124 2.04403 5.5699 2.00002C5.64914 1.92764 5.75258 1.88751 5.8599 1.88751C5.96722 1.88751 6.07066 1.92764 6.1499 2.00002C6.20128 2.04969 6.23914 2.11164 6.2599 2.18002L8.6999 9.67002H16.7999L19.2399 2.16002C19.2636 2.09883 19.3012 2.04403 19.3499 2.00002C19.4291 1.92764 19.5326 1.88751 19.6399 1.88751C19.7472 1.88751 19.8507 1.92764 19.9299 2.00002C19.9813 2.04969 20.0191 2.11164 20.0399 2.18002L22.4799 9.69002L23.7499 13.45C23.8004 13.6235 23.7937 13.8087 23.7306 13.978C23.6676 14.1473 23.5516 14.2918 23.3999 14.39Z" fill="#4B8282"/>
<path d="M49.786 5.43598L46.276 18H43.306L40.948 9.05398L38.482 18L35.53 18.018L32.146 5.43598H34.846L37.06 15.192L39.616 5.43598H42.424L44.836 15.138L47.068 5.43598H49.786Z" fill="#4B8282"/>
<path d="M55.8594 18.162C54.8994 18.162 54.0354 17.952 53.2674 17.532C52.4994 17.1 51.8934 16.494 51.4494 15.714C51.0175 14.934 50.8014 14.034 50.8014 13.014C50.8014 11.994 51.0234 11.094 51.4674 10.314C51.9234 9.53398 52.5414 8.93398 53.3214 8.51398C54.1014 8.08198 54.9715 7.86598 55.9314 7.86598C56.8915 7.86598 57.7614 8.08198 58.5414 8.51398C59.3214 8.93398 59.9334 9.53398 60.3774 10.314C60.8334 11.094 61.0614 11.994 61.0614 13.014C61.0614 14.034 60.8274 14.934 60.3594 15.714C59.9035 16.494 59.2794 17.1 58.4874 17.532C57.7074 17.952 56.8314 18.162 55.8594 18.162ZM55.8594 15.966C56.3154 15.966 56.7414 15.858 57.1374 15.642C57.5455 15.414 57.8694 15.078 58.1094 14.634C58.3494 14.19 58.4694 13.65 58.4694 13.014C58.4694 12.066 58.2174 11.34 57.7134 10.836C57.2214 10.32 56.6154 10.062 55.8954 10.062C55.1754 10.062 54.5695 10.32 54.0774 10.836C53.5975 11.34 53.3574 12.066 53.3574 13.014C53.3574 13.962 53.5914 14.694 54.0595 15.21C54.5394 15.714 55.1395 15.966 55.8594 15.966Z" fill="#4B8282"/>
<path d="M65.43 4.67998V18H62.91V4.67998H65.43Z" fill="#4B8282"/>
<path d="M72.4917 10.098H70.7457V18H68.1897V10.098H67.0557V8.02798H68.1897V7.52398C68.1897 6.29998 68.5377 5.39998 69.2337 4.82398C69.9297 4.24798 70.9797 3.97798 72.3837 4.01398V6.13798C71.7717 6.12598 71.3457 6.22798 71.1057 6.44398C70.8657 6.65998 70.7457 7.04998 70.7457 7.61398V8.02798H72.4917V10.098Z" fill="#4B8282"/>
<path d="M78.6968 10.098H76.9508V18H74.3948V10.098H73.2608V8.02798H74.3948V7.52398C74.3948 6.29998 74.7428 5.39998 75.4388 4.82398C76.1348 4.24798 77.1848 3.97798 78.5888 4.01398V6.13798C77.9768 6.12598 77.5508 6.22798 77.3108 6.44398C77.0708 6.65998 76.9508 7.04998 76.9508 7.61398V8.02798H78.6968V10.098Z" fill="#4B8282"/>
<path d="M87.9979 10.512V12.636H80.3659V10.512H87.9979Z" fill="#4B8282"/>
<path d="M97.916 18L93.344 12.402V18H90.824V5.43598H93.344V11.07L97.916 5.43598H100.958L95.774 11.664L101.102 18H97.916Z" fill="#4B8282"/>
<path d="M107.188 18.162C106.228 18.162 105.364 17.952 104.596 17.532C103.828 17.1 103.222 16.494 102.778 15.714C102.346 14.934 102.13 14.034 102.13 13.014C102.13 11.994 102.352 11.094 102.796 10.314C103.252 9.53398 103.87 8.93398 104.65 8.51398C105.43 8.08198 106.3 7.86598 107.26 7.86598C108.22 7.86598 109.09 8.08198 109.87 8.51398C110.65 8.93398 111.262 9.53398 111.706 10.314C112.162 11.094 112.39 11.994 112.39 13.014C112.39 14.034 112.156 14.934 111.688 15.714C111.232 16.494 110.608 17.1 109.816 17.532C109.036 17.952 108.16 18.162 107.188 18.162ZM107.188 15.966C107.644 15.966 108.07 15.858 108.466 15.642C108.874 15.414 109.198 15.078 109.438 14.634C109.678 14.19 109.798 13.65 109.798 13.014C109.798 12.066 109.546 11.34 109.042 10.836C108.55 10.32 107.944 10.062 107.224 10.062C106.504 10.062 105.898 10.32 105.406 10.836C104.926 11.34 104.686 12.066 104.686 13.014C104.686 13.962 104.92 14.694 105.388 15.21C105.868 15.714 106.468 15.966 107.188 15.966Z" fill="#4B8282"/>
<path d="M118.054 18.162C117.238 18.162 116.506 18.018 115.858 17.73C115.21 17.43 114.694 17.028 114.31 16.524C113.938 16.02 113.734 15.462 113.698 14.85H116.236C116.284 15.234 116.47 15.552 116.794 15.804C117.13 16.056 117.544 16.182 118.036 16.182C118.516 16.182 118.888 16.086 119.152 15.894C119.428 15.702 119.566 15.456 119.566 15.156C119.566 14.832 119.398 14.592 119.062 14.436C118.738 14.268 118.216 14.088 117.496 13.896C116.752 13.716 116.14 13.53 115.66 13.338C115.192 13.146 114.784 12.852 114.436 12.456C114.1 12.06 113.932 11.526 113.932 10.854C113.932 10.302 114.088 9.79798 114.4 9.34198C114.724 8.88598 115.18 8.52598 115.768 8.26198C116.368 7.99798 117.07 7.86598 117.874 7.86598C119.062 7.86598 120.01 8.16598 120.718 8.76598C121.426 9.35398 121.816 10.152 121.888 11.16H119.476C119.44 10.764 119.272 10.452 118.972 10.224C118.684 9.98398 118.294 9.86398 117.802 9.86398C117.346 9.86398 116.992 9.94798 116.74 10.116C116.5 10.284 116.38 10.518 116.38 10.818C116.38 11.154 116.548 11.412 116.884 11.592C117.22 11.76 117.742 11.934 118.45 12.114C119.17 12.294 119.764 12.48 120.232 12.672C120.7 12.864 121.102 13.164 121.438 13.572C121.786 13.968 121.966 14.496 121.978 15.156C121.978 15.732 121.816 16.248 121.492 16.704C121.18 17.16 120.724 17.52 120.124 17.784C119.536 18.036 118.846 18.162 118.054 18.162Z" fill="#4B8282"/>
<path d="M127.863 18.162C127.047 18.162 126.315 18.018 125.667 17.73C125.019 17.43 124.503 17.028 124.119 16.524C123.747 16.02 123.543 15.462 123.507 14.85H126.045C126.093 15.234 126.279 15.552 126.603 15.804C126.939 16.056 127.353 16.182 127.845 16.182C128.325 16.182 128.697 16.086 128.961 15.894C129.237 15.702 129.375 15.456 129.375 15.156C129.375 14.832 129.207 14.592 128.871 14.436C128.547 14.268 128.025 14.088 127.305 13.896C126.561 13.716 125.949 13.53 125.469 13.338C125.001 13.146 124.593 12.852 124.245 12.456C123.909 12.06 123.741 11.526 123.741 10.854C123.741 10.302 123.897 9.79798 124.209 9.34198C124.533 8.88598 124.989 8.52598 125.577 8.26198C126.177 7.99798 126.879 7.86598 127.683 7.86598C128.871 7.86598 129.819 8.16598 130.527 8.76598C131.235 9.35398 131.625 10.152 131.697 11.16H129.285C129.249 10.764 129.081 10.452 128.781 10.224C128.493 9.98398 128.103 9.86398 127.611 9.86398C127.155 9.86398 126.801 9.94798 126.549 10.116C126.309 10.284 126.189 10.518 126.189 10.818C126.189 11.154 126.357 11.412 126.693 11.592C127.029 11.76 127.551 11.934 128.259 12.114C128.979 12.294 129.573 12.48 130.041 12.672C130.509 12.864 130.911 13.164 131.247 13.572C131.595 13.968 131.775 14.496 131.787 15.156C131.787 15.732 131.625 16.248 131.301 16.704C130.989 17.16 130.533 17.52 129.933 17.784C129.345 18.036 128.655 18.162 127.863 18.162Z" fill="#4B8282"/>
</svg>
