<svg width="121" height="28" viewBox="0 0 121 28" fill="none" xmlns="http://www.w3.org/2000/svg">
<rect opacity="0.1" x="0.25" width="85" height="28" fill="#4B8282"/>
<rect opacity="0.3" x="85.25" width="35" height="28" fill="#4B8282"/>
<path d="M89.9675 17.3175H93.108V17.8204H88.8438V10.1899H89.9675V17.3175Z" fill="#4B8282"/>
<path d="M97.3415 17.9692C96.9652 17.9692 96.6026 17.9213 96.2536 17.8255C95.9081 17.7297 95.5831 17.5963 95.2786 17.4253C94.9776 17.2508 94.7022 17.0421 94.4525 16.7992C94.2061 16.5563 93.994 16.2878 93.8162 15.9936C93.6383 15.696 93.4997 15.3778 93.4005 15.0391C93.3047 14.697 93.2568 14.3412 93.2568 13.9718C93.2568 13.6092 93.3047 13.2585 93.4005 12.9198C93.4997 12.5811 93.6383 12.2647 93.8162 11.9705C93.994 11.6763 94.2061 11.4077 94.4525 11.1648C94.7022 10.922 94.9776 10.715 95.2786 10.5439C95.5831 10.3729 95.9081 10.2395 96.2536 10.1437C96.6026 10.0479 96.9652 10 97.3415 10C97.7144 10 98.0736 10.0479 98.4191 10.1437C98.7646 10.236 99.0879 10.3695 99.389 10.5439C99.69 10.715 99.9637 10.922 100.21 11.1648C100.46 11.4077 100.672 11.6763 100.846 11.9705C101.024 12.2647 101.161 12.5811 101.257 12.9198C101.356 13.2585 101.406 13.6092 101.406 13.9718C101.406 14.3412 101.356 14.697 101.257 15.0391C101.161 15.3778 101.024 15.696 100.846 15.9936C100.672 16.2878 100.46 16.5563 100.21 16.7992C99.9637 17.0421 99.69 17.2508 99.389 17.4253C99.0879 17.5963 98.7646 17.7297 98.4191 17.8255C98.0736 17.9213 97.7144 17.9692 97.3415 17.9692ZM97.3415 17.4715C97.8067 17.4715 98.2173 17.3808 98.573 17.1995C98.9322 17.0182 99.2333 16.7702 99.4762 16.4554C99.7191 16.1407 99.9021 15.7712 100.025 15.347C100.152 14.9194 100.215 14.461 100.215 13.9718C100.215 13.486 100.154 13.031 100.03 12.6068C99.9072 12.1826 99.7242 11.8148 99.4813 11.5035C99.2419 11.1922 98.9425 10.9476 98.5833 10.7697C98.2241 10.5884 97.8102 10.4978 97.3415 10.4978C96.866 10.4978 96.4486 10.5884 96.0894 10.7697C95.7336 10.9476 95.4343 11.1922 95.1914 11.5035C94.9519 11.8148 94.7706 12.1826 94.6475 12.6068C94.5277 13.031 94.4679 13.486 94.4679 13.9718C94.4679 14.461 94.5294 14.9194 94.6526 15.347C94.7757 15.7712 94.9571 16.1407 95.1965 16.4554C95.4394 16.7702 95.7405 17.0182 96.0997 17.1995C96.4589 17.3808 96.8728 17.4715 97.3415 17.4715Z" fill="#4B8282"/>
<path d="M103.479 13.9102C103.479 14.4268 103.563 14.8954 103.73 15.3162C103.901 15.7336 104.144 16.0911 104.459 16.3887C104.774 16.6863 105.157 16.9155 105.608 17.0763C106.063 17.2371 106.573 17.3175 107.138 17.3175H108.261V12.8788H109.385V17.8204H106.676C106.269 17.8204 105.877 17.7845 105.501 17.7126C105.124 17.6408 104.772 17.533 104.443 17.3894C104.115 17.2457 103.817 17.0661 103.551 16.8505C103.284 16.635 103.055 16.3819 102.863 16.0911C102.671 15.8003 102.523 15.4736 102.417 15.111C102.314 14.7483 102.263 14.3481 102.263 13.9102C102.263 13.5442 102.31 13.1935 102.406 12.8582C102.505 12.523 102.642 12.2117 102.817 11.9243C102.995 11.6369 103.207 11.377 103.453 11.1443C103.703 10.9117 103.978 10.7133 104.279 10.5491C104.584 10.3814 104.91 10.2532 105.259 10.1642C105.608 10.0753 105.973 10.0308 106.352 10.0308C106.944 10.0308 107.495 10.1283 108.005 10.3233C108.514 10.5183 108.966 10.7851 109.359 11.1238L109.072 11.5035C108.915 11.3701 108.74 11.2452 108.549 11.1289C108.361 11.0126 108.159 10.9117 107.943 10.8262C107.731 10.7406 107.51 10.6739 107.281 10.626C107.052 10.5781 106.821 10.5542 106.588 10.5542C106.106 10.5576 105.673 10.6449 105.29 10.8159C104.907 10.9835 104.58 11.2179 104.31 11.5189C104.043 11.8165 103.838 12.1689 103.694 12.576C103.551 12.9831 103.479 13.4278 103.479 13.9102Z" fill="#4B8282"/>
<path d="M114.532 17.9692C114.156 17.9692 113.793 17.9213 113.444 17.8255C113.099 17.7297 112.774 17.5963 112.469 17.4253C112.168 17.2508 111.893 17.0421 111.643 16.7992C111.397 16.5563 111.185 16.2878 111.007 15.9936C110.829 15.696 110.69 15.3778 110.591 15.0391C110.495 14.697 110.447 14.3412 110.447 13.9718C110.447 13.6092 110.495 13.2585 110.591 12.9198C110.69 12.5811 110.829 12.2647 111.007 11.9705C111.185 11.6763 111.397 11.4077 111.643 11.1648C111.893 10.922 112.168 10.715 112.469 10.5439C112.774 10.3729 113.099 10.2395 113.444 10.1437C113.793 10.0479 114.156 10 114.532 10C114.905 10 115.264 10.0479 115.61 10.1437C115.955 10.236 116.278 10.3695 116.579 10.5439C116.881 10.715 117.154 10.922 117.401 11.1648C117.65 11.4077 117.862 11.6763 118.037 11.9705C118.215 12.2647 118.352 12.5811 118.447 12.9198C118.547 13.2585 118.596 13.6092 118.596 13.9718C118.596 14.3412 118.547 14.697 118.447 15.0391C118.352 15.3778 118.215 15.696 118.037 15.9936C117.862 16.2878 117.65 16.5563 117.401 16.7992C117.154 17.0421 116.881 17.2508 116.579 17.4253C116.278 17.5963 115.955 17.7297 115.61 17.8255C115.264 17.9213 114.905 17.9692 114.532 17.9692ZM114.532 17.4715C114.997 17.4715 115.408 17.3808 115.764 17.1995C116.123 17.0182 116.424 16.7702 116.667 16.4554C116.91 16.1407 117.093 15.7712 117.216 15.347C117.342 14.9194 117.406 14.461 117.406 13.9718C117.406 13.486 117.344 13.031 117.221 12.6068C117.098 12.1826 116.915 11.8148 116.672 11.5035C116.432 11.1922 116.133 10.9476 115.774 10.7697C115.415 10.5884 115.001 10.4978 114.532 10.4978C114.056 10.4978 113.639 10.5884 113.28 10.7697C112.924 10.9476 112.625 11.1922 112.382 11.5035C112.142 11.8148 111.961 12.1826 111.838 12.6068C111.718 13.031 111.658 13.486 111.658 13.9718C111.658 14.461 111.72 14.9194 111.843 15.347C111.966 15.7712 112.148 16.1407 112.387 16.4554C112.63 16.7702 112.931 17.0182 113.29 17.1995C113.649 17.3808 114.063 17.4715 114.532 17.4715Z" fill="#4B8282"/>
<path d="M6.3738 15.814V17.8204H5.25V10.1899H7.15892C7.69601 10.1899 8.15614 10.236 8.53929 10.3284C8.92244 10.4174 9.24401 10.5371 9.50401 10.6876C9.764 10.8381 9.97268 11.0126 10.1301 11.211C10.2874 11.406 10.4072 11.6096 10.4893 11.8217C10.5714 12.0304 10.6244 12.2408 10.6483 12.4529C10.6757 12.6615 10.6894 12.8565 10.6894 13.0378C10.6894 13.2157 10.674 13.409 10.6432 13.6177C10.6158 13.823 10.5577 14.0282 10.4687 14.2335C10.3832 14.4387 10.26 14.6372 10.0993 14.8287C9.9419 15.0169 9.7315 15.1845 9.46809 15.3316C9.20809 15.4787 8.88823 15.5967 8.5085 15.6857C8.13219 15.7712 7.68233 15.814 7.15892 15.814H6.3738ZM6.3738 10.6928V15.3111H7.00497C7.3847 15.3111 7.72851 15.2683 8.0364 15.1828C8.34429 15.0973 8.606 14.9604 8.82152 14.7723C9.04046 14.5841 9.20809 14.3447 9.32441 14.0539C9.44072 13.7597 9.49888 13.4039 9.49888 12.9865C9.49888 12.6684 9.46809 12.3913 9.40651 12.1552C9.34835 11.9158 9.26454 11.7122 9.15507 11.5446C9.0456 11.3735 8.91389 11.2333 8.75994 11.1238C8.60942 11.0143 8.44179 10.9271 8.25706 10.8621C8.07574 10.7971 7.88075 10.7526 7.67207 10.7287C7.46338 10.7047 7.24786 10.6928 7.0255 10.6928H6.3738Z" fill="#4B8282"/>
<path d="M13.0858 17.3175H16.2263V17.8204H11.962V10.1899H13.0858V17.3175Z" fill="#4B8282"/>
<path d="M23.2718 17.8204H22.0864L21.6656 16.83H17.4937L17.0832 17.8204H16.4623L19.259 11.17L18.8485 10.1899H20.0492L23.2718 17.8204ZM17.7041 16.3271H21.4553L19.5617 11.8935L17.7041 16.3271Z" fill="#4B8282"/>
<path d="M27.5823 10.0308C28.1775 10.0308 28.7283 10.1283 29.2346 10.3233C29.7443 10.5149 30.1959 10.7817 30.5893 11.1238L30.302 11.5035C30.1446 11.3701 29.9701 11.2452 29.7785 11.1289C29.587 11.0126 29.3851 10.9134 29.173 10.8313C28.9609 10.7458 28.7403 10.6791 28.5111 10.6312C28.2819 10.5799 28.0509 10.5542 27.8183 10.5542C27.3188 10.5542 26.8758 10.6449 26.4893 10.8262C26.1027 11.0075 25.7777 11.2555 25.5143 11.5702C25.2509 11.885 25.0507 12.2527 24.9139 12.6735C24.777 13.0943 24.7086 13.5459 24.7086 14.0282C24.7086 14.5003 24.7753 14.945 24.9088 15.3624C25.0456 15.7798 25.244 16.1458 25.504 16.4606C25.7674 16.7753 26.0924 17.025 26.479 17.2097C26.8656 17.3911 27.3086 17.4817 27.808 17.4817C28.0475 17.4817 28.2904 17.4578 28.5367 17.4099C28.783 17.362 29.0208 17.2919 29.25 17.1995C29.4792 17.1071 29.6947 16.9942 29.8966 16.8608C30.1018 16.7274 30.2831 16.5752 30.4405 16.4041L30.733 16.7787C30.3293 17.1619 29.8606 17.4612 29.327 17.6767C28.7933 17.8922 28.2117 18 27.5823 18C27.2025 18 26.8382 17.9521 26.4893 17.8563C26.1403 17.764 25.8136 17.6305 25.5091 17.4561C25.2081 17.2816 24.9327 17.0746 24.683 16.8352C24.4367 16.5923 24.2246 16.3237 24.0467 16.0295C23.8722 15.7353 23.7354 15.4206 23.6361 15.0853C23.5404 14.7466 23.4925 14.3943 23.4925 14.0282C23.4925 13.6622 23.5404 13.3081 23.6361 12.966C23.7354 12.6239 23.8722 12.3058 24.0467 12.0115C24.2246 11.7139 24.4367 11.4437 24.683 11.2008C24.9327 10.9579 25.2081 10.7509 25.5091 10.5799C25.8136 10.4054 26.1403 10.2703 26.4893 10.1745C26.8382 10.0787 27.2025 10.0308 27.5823 10.0308Z" fill="#4B8282"/>
<path d="M36.665 10.1899V10.6928H33.1191V13.0071H36.5572V13.5099H33.1191V17.3175H36.665V17.8204H31.9953V10.1899H36.665Z" fill="#4B8282"/>
<path d="M43.8953 17.8204H42.7715V13.5099H39.3283V17.8204H38.2045V10.1899H39.3283V13.0071H42.7715V10.1899H43.8953V17.8204Z" fill="#4B8282"/>
<path d="M49.3809 17.9692C49.0045 17.9692 48.6419 17.9213 48.293 17.8255C47.9475 17.7297 47.6225 17.5963 47.318 17.4253C47.0169 17.2508 46.7416 17.0421 46.4918 16.7992C46.2455 16.5563 46.0334 16.2878 45.8555 15.9936C45.6776 15.696 45.5391 15.3778 45.4399 15.0391C45.3441 14.697 45.2962 14.3412 45.2962 13.9718C45.2962 13.6092 45.3441 13.2585 45.4399 12.9198C45.5391 12.5811 45.6776 12.2647 45.8555 11.9705C46.0334 11.6763 46.2455 11.4077 46.4918 11.1648C46.7416 10.922 47.0169 10.715 47.318 10.5439C47.6225 10.3729 47.9475 10.2395 48.293 10.1437C48.6419 10.0479 49.0045 10 49.3809 10C49.7537 10 50.1129 10.0479 50.4585 10.1437C50.804 10.236 51.1273 10.3695 51.4283 10.5439C51.7294 10.715 52.003 10.922 52.2494 11.1648C52.4991 11.4077 52.7112 11.6763 52.8857 11.9705C53.0636 12.2647 53.2004 12.5811 53.2962 12.9198C53.3954 13.2585 53.445 13.6092 53.445 13.9718C53.445 14.3412 53.3954 14.697 53.2962 15.0391C53.2004 15.3778 53.0636 15.696 52.8857 15.9936C52.7112 16.2878 52.4991 16.5563 52.2494 16.7992C52.003 17.0421 51.7294 17.2508 51.4283 17.4253C51.1273 17.5963 50.804 17.7297 50.4585 17.8255C50.1129 17.9213 49.7537 17.9692 49.3809 17.9692ZM49.3809 17.4715C49.8461 17.4715 50.2566 17.3808 50.6124 17.1995C50.9716 17.0182 51.2727 16.7702 51.5156 16.4554C51.7584 16.1407 51.9415 15.7712 52.0646 15.347C52.1912 14.9194 52.2545 14.461 52.2545 13.9718C52.2545 13.486 52.1929 13.031 52.0698 12.6068C51.9466 12.1826 51.7636 11.8148 51.5207 11.5035C51.2812 11.1922 50.9819 10.9476 50.6227 10.7697C50.2635 10.5884 49.8495 10.4978 49.3809 10.4978C48.9053 10.4978 48.488 10.5884 48.1288 10.7697C47.773 10.9476 47.4736 11.1922 47.2308 11.5035C46.9913 11.8148 46.81 12.1826 46.6868 12.6068C46.5671 13.031 46.5072 13.486 46.5072 13.9718C46.5072 14.461 46.5688 14.9194 46.6919 15.347C46.8151 15.7712 46.9964 16.1407 47.2359 16.4554C47.4788 16.7702 47.7798 17.0182 48.139 17.1995C48.4982 17.3808 48.9122 17.4715 49.3809 17.4715Z" fill="#4B8282"/>
<path d="M55.9235 17.3175H59.064V17.8204H54.7997V10.1899H55.9235V17.3175Z" fill="#4B8282"/>
<path d="M65.6887 14.018C65.6887 13.5527 65.6357 13.1473 65.5297 12.8018C65.4236 12.4563 65.2799 12.1604 65.0986 11.914C64.9173 11.6677 64.7052 11.4659 64.4623 11.3085C64.2194 11.1477 63.9628 11.0229 63.6926 10.9339C63.4223 10.8416 63.1435 10.7783 62.8562 10.7441C62.5722 10.7099 62.2951 10.6928 62.0249 10.6928H61.3834V17.3175H62.0249C62.2951 17.3175 62.5722 17.3004 62.8562 17.2662C63.1435 17.232 63.4223 17.1704 63.6926 17.0815C63.9628 16.9891 64.2194 16.8642 64.4623 16.7069C64.7052 16.5495 64.9173 16.3494 65.0986 16.1065C65.2799 15.8602 65.4236 15.566 65.5297 15.2239C65.6357 14.8818 65.6887 14.4798 65.6887 14.018ZM66.8792 13.9974C66.8792 14.5311 66.7835 15.0306 66.5919 15.4958C66.4037 15.9577 66.1232 16.3613 65.7503 16.7069C65.3774 17.0524 64.9139 17.3244 64.3597 17.5228C63.8089 17.7212 63.1709 17.8204 62.4456 17.8204H60.2596V10.1899H62.4456C63.1709 10.1899 63.8089 10.2891 64.3597 10.4875C64.9139 10.6859 65.3774 10.9579 65.7503 11.3034C66.1232 11.6455 66.4037 12.0492 66.5919 12.5144C66.7835 12.9763 66.8792 13.4706 66.8792 13.9974Z" fill="#4B8282"/>
<path d="M72.9857 10.1899V10.6928H69.4399V13.0071H72.878V13.5099H69.4399V17.3175H72.9857V17.8204H68.3161V10.1899H72.9857Z" fill="#4B8282"/>
<path d="M76.9216 10.1899C77.356 10.1899 77.7306 10.2292 78.0454 10.3079C78.3635 10.3832 78.6321 10.4841 78.851 10.6106C79.0734 10.7372 79.2513 10.8826 79.3847 11.0468C79.5215 11.211 79.6259 11.3804 79.6977 11.5548C79.773 11.7293 79.8226 11.9038 79.8465 12.0783C79.8739 12.2493 79.8876 12.4084 79.8876 12.5555C79.8876 12.7436 79.8568 12.954 79.7952 13.1867C79.7371 13.4193 79.6293 13.6451 79.4719 13.864C79.318 14.083 79.1059 14.2814 78.8356 14.4593C78.5654 14.6337 78.2216 14.7586 77.8042 14.8339L80.0107 17.8204H78.6355L76.4803 14.9108H75.649V17.8204H74.5252V10.1899H76.9216ZM75.649 10.6928V14.4028H76.2904C76.6564 14.4028 76.9866 14.3703 77.2808 14.3053C77.5784 14.2369 77.8316 14.1291 78.0402 13.982C78.2523 13.8315 78.4148 13.6382 78.5277 13.4022C78.6406 13.1627 78.6971 12.8736 78.6971 12.535C78.6971 12.1518 78.6287 11.8405 78.4918 11.601C78.355 11.3581 78.1737 11.17 77.9479 11.0366C77.7255 10.9031 77.4706 10.8125 77.1833 10.7646C76.8959 10.7167 76.6017 10.6928 76.3007 10.6928H75.649Z" fill="#4B8282"/>
</svg>
