<svg width="36" height="36" viewBox="0 0 36 36" fill="none" xmlns="http://www.w3.org/2000/svg">
<path d="M29.069 13.5462C28.9066 13.6722 26.0391 15.2879 26.0391 18.8807C26.0391 23.0363 29.6879 24.5065 29.7971 24.5429C29.7803 24.6325 29.2174 26.5563 27.8733 28.5165C26.6748 30.2414 25.423 31.9636 23.5189 31.9636C21.6147 31.9636 21.1246 30.8575 18.9264 30.8575C16.7842 30.8575 16.0225 32 14.2807 32C12.539 32 11.3236 30.4038 9.92629 28.4436C8.30773 26.1418 7 22.5659 7 19.1719C7 13.7282 10.5396 10.8411 14.0231 10.8411C15.8741 10.8411 17.417 12.0564 18.5792 12.0564C19.6853 12.0564 21.4102 10.7683 23.5161 10.7683C24.3141 10.7683 27.1816 10.8411 29.069 13.5462ZM22.5163 8.46365C23.3872 7.43034 24.0033 5.9966 24.0033 4.56286C24.0033 4.36404 23.9865 4.16242 23.9501 4C22.5332 4.05321 20.8474 4.94369 19.8309 6.12261C19.0328 7.0299 18.2879 8.46365 18.2879 9.91699C18.2879 10.1354 18.3243 10.3538 18.3411 10.4238C18.4307 10.4406 18.5764 10.4602 18.722 10.4602C19.9933 10.4602 21.5923 9.60896 22.5163 8.46365Z" fill="white"/>
</svg>
