<svg width="210" height="210" viewBox="0 0 210 210" fill="none" xmlns="http://www.w3.org/2000/svg">
<g clip-path="url(#clip0_1_2965)">
<path d="M172.368 25.0687C172.362 38.5265 161.346 49.5375 147.888 49.5375L147.894 37.3031C154.623 37.3031 160.13 31.7976 160.133 25.0687C160.136 18.3398 154.633 12.8343 147.904 12.8343C143.622 12.8343 139.828 15.0359 137.503 18.5835C131.015 28.9844 121.589 38.6492 108.739 48.314L105.071 43.4203L101.398 48.314C88.5564 38.6492 79.1395 28.9844 72.6604 18.5835C70.3378 15.0359 66.5458 12.8343 62.2637 12.8343C55.5348 12.8343 50.027 18.3398 50.024 25.0687C50.0211 31.7976 55.5242 37.3031 62.2531 37.3031L62.2478 49.5375C48.79 49.5375 37.7838 38.5265 37.7897 25.0687C37.7955 11.6109 48.8112 0.599976 62.269 0.599976C70.7104 0.599976 78.4172 4.88201 82.9398 12.1C88.0754 20.175 95.4127 27.882 105.074 35.5906C114.742 27.882 122.086 20.175 127.229 12.1C131.758 4.88201 139.468 0.599976 147.91 0.599976C161.367 0.599976 172.374 11.6109 172.368 25.0687Z" fill="#01B664"/>
<path d="M172.368 25.0687C172.362 38.5265 161.346 49.5375 147.888 49.5375L147.894 37.3031C154.623 37.3031 160.13 31.7976 160.133 25.0687C160.136 18.3398 154.633 12.8343 147.904 12.8343C143.622 12.8343 139.828 15.0359 137.503 18.5835C131.015 28.9844 121.589 38.6492 108.739 48.314L105.071 43.4203L105.074 35.5906C114.742 27.882 122.086 20.175 127.229 12.1C131.758 4.88201 139.468 0.599976 147.91 0.599976C161.367 0.599976 172.374 11.6109 172.368 25.0687Z" fill="#01D676"/>
<path d="M197.223 74.0062L197.164 209.4H123.35L111.121 197.166H98.8868L86.6471 209.4H12.833L12.8918 74.0062H197.223Z" fill="#28A46C"/>
<path d="M197.223 74.0062L197.164 209.4H123.35L111.121 197.166H105.004L105.058 74.0062H197.223Z" fill="#4ADF9D"/>
<path d="M209.474 37.3031L209.452 86.2406H0.652312L0.673584 37.3031H86.722L98.9511 49.5375H111.185L123.425 37.3031H209.474Z" fill="#4ADF9C"/>
<path d="M209.473 37.3031L209.452 86.2406H105.052L105.068 49.5375H111.185L123.425 37.3031H209.473Z" fill="#1ED884"/>
<path d="M86.7219 37.3031H123.425L123.35 209.4H86.6471L86.7219 37.3031Z" fill="#01D676"/>
<path d="M105.073 37.3031H123.425L123.35 209.4H104.999L105.073 37.3031Z" fill="#018047"/>
</g>
<defs>
<clipPath id="clip0_1_2965">
<rect width="208.8" height="208.8" fill="white" transform="matrix(1 0 -0.000434676 1 0.689453 0.599976)"/>
</clipPath>
</defs>
</svg>
