<svg width="28" height="28" viewBox="0 0 28 28" fill="none" xmlns="http://www.w3.org/2000/svg">
<path d="M23.3334 14V25.6667H4.66675V14" stroke="white" stroke-width="2" stroke-linecap="round" stroke-linejoin="round"/>
<path d="M25.6666 8.1665H2.33325V13.9998H25.6666V8.1665Z" stroke="white" stroke-width="2" stroke-linecap="round" stroke-linejoin="round"/>
<path d="M14 25.6665V8.1665" stroke="white" stroke-width="2" stroke-linecap="round" stroke-linejoin="round"/>
<path d="M13.9999 8.16683H8.74992C7.97637 8.16683 7.23451 7.85954 6.68752 7.31256C6.14054 6.76558 5.83325 6.02371 5.83325 5.25016C5.83325 4.47661 6.14054 3.73475 6.68752 3.18777C7.23451 2.64079 7.97637 2.3335 8.74992 2.3335C12.8333 2.3335 13.9999 8.16683 13.9999 8.16683Z" stroke="white" stroke-width="2" stroke-linecap="round" stroke-linejoin="round"/>
<path d="M14 8.16683H19.25C20.0235 8.16683 20.7654 7.85954 21.3124 7.31256C21.8594 6.76558 22.1667 6.02371 22.1667 5.25016C22.1667 4.47661 21.8594 3.73475 21.3124 3.18777C20.7654 2.64079 20.0235 2.3335 19.25 2.3335C15.1667 2.3335 14 8.16683 14 8.16683Z" stroke="white" stroke-width="2" stroke-linecap="round" stroke-linejoin="round"/>
</svg>
