<svg width="54" height="54" viewBox="0 0 54 54" fill="none" xmlns="http://www.w3.org/2000/svg">
<g clip-path="url(#clip0_1_2749)">
<path d="M44.0349 6.78558C44.0334 10.1887 41.2478 12.9731 37.8447 12.9731L37.8461 9.87933C39.5476 9.87933 40.9404 8.48714 40.9412 6.78558C40.9419 5.08402 39.5503 3.69183 37.8488 3.69183C36.7659 3.69183 35.8066 4.24855 35.2184 5.14565C33.5778 7.77574 31.1944 10.2197 27.9449 12.6637L27.0173 11.4262L26.0886 12.6637C22.8412 10.2197 20.4599 7.77574 18.8216 5.14565C18.2342 4.24855 17.2753 3.69183 16.1925 3.69183C14.4909 3.69183 13.0981 5.08402 13.0974 6.78558C13.0967 8.48714 14.4883 9.87933 16.1898 9.87933L16.1885 12.9731C12.7853 12.9731 10.0022 10.1887 10.0037 6.78558C10.0051 3.38246 12.7907 0.598083 16.1938 0.598083C18.3285 0.598083 20.2773 1.6809 21.4209 3.50613C22.7196 5.54808 24.575 7.49698 27.0181 9.44629C29.463 7.49698 31.3201 5.54808 32.6205 3.50613C33.7657 1.6809 35.7155 0.598083 37.8501 0.598083C41.2532 0.598083 44.0364 3.38246 44.0349 6.78558Z" fill="#01B664"/>
<path d="M44.0349 6.78558C44.0334 10.1887 41.2478 12.9731 37.8447 12.9731L37.8461 9.87933C39.5476 9.87933 40.9404 8.48714 40.9412 6.78558C40.9419 5.08402 39.5503 3.69183 37.8488 3.69183C36.7659 3.69183 35.8066 4.24855 35.2184 5.14565C33.5778 7.77574 31.1944 10.2197 27.9449 12.6637L27.0173 11.4262L27.0181 9.44629C29.463 7.49698 31.3201 5.54808 32.6205 3.50613C33.7657 1.6809 35.7155 0.598083 37.8501 0.598083C41.2532 0.598083 44.0364 3.38246 44.0349 6.78558Z" fill="#01D676"/>
<path d="M50.32 19.1606L50.3051 53.3981H31.6395L28.5471 50.3043H25.4534L22.3583 53.3981H3.69264L3.70752 19.1606H50.32Z" fill="#28A46C"/>
<path d="M50.3204 19.1606L50.3055 53.3981H31.6399L28.5475 50.3043H27.0006L27.0142 19.1606H50.3204Z" fill="#4ADF9D"/>
<path d="M53.4182 9.87933L53.4128 22.2543H0.612785L0.618164 9.87933H22.3775L25.4699 12.9731H28.5637L31.6588 9.87933H53.4182Z" fill="#4ADF9C"/>
<path d="M53.4181 9.87933L53.4127 22.2543H27.0127L27.0167 12.9731H28.5636L31.6587 9.87933H53.4181Z" fill="#1ED884"/>
<path d="M22.3774 9.87933H31.6587L31.6398 53.3981H22.3585L22.3774 9.87933Z" fill="#01D676"/>
<path d="M27.0181 9.87933H31.6587L31.6398 53.3981H26.9991L27.0181 9.87933Z" fill="#018047"/>
</g>
<defs>
<clipPath id="clip0_1_2749">
<rect width="52.8" height="52.8" fill="white" transform="matrix(1 0 -0.000434676 1 0.62207 0.598083)"/>
</clipPath>
</defs>
</svg>
