<svg width="25" height="25" viewBox="0 0 25 25" fill="none" xmlns="http://www.w3.org/2000/svg">
<path d="M20.7598 12.835V22.835H4.75977V12.835" stroke="white" stroke-width="2" stroke-linecap="round" stroke-linejoin="round"/>
<path d="M22.7598 7.83496H2.75977V12.835H22.7598V7.83496Z" stroke="white" stroke-width="2" stroke-linecap="round" stroke-linejoin="round"/>
<path d="M12.7598 22.835V7.83496" stroke="white" stroke-width="2" stroke-linecap="round" stroke-linejoin="round"/>
<path d="M12.7598 7.83496H8.25977C7.59672 7.83496 6.96084 7.57157 6.492 7.10273C6.02316 6.63389 5.75977 5.998 5.75977 5.33496C5.75977 4.67192 6.02316 4.03603 6.492 3.56719C6.96084 3.09835 7.59672 2.83496 8.25977 2.83496C11.7598 2.83496 12.7598 7.83496 12.7598 7.83496Z" stroke="white" stroke-width="2" stroke-linecap="round" stroke-linejoin="round"/>
<path d="M12.7598 7.83496H17.2598C17.9228 7.83496 18.5587 7.57157 19.0275 7.10273C19.4964 6.63389 19.7598 5.998 19.7598 5.33496C19.7598 4.67192 19.4964 4.03603 19.0275 3.56719C18.5587 3.09835 17.9228 2.83496 17.2598 2.83496C13.7598 2.83496 12.7598 7.83496 12.7598 7.83496Z" stroke="white" stroke-width="2" stroke-linecap="round" stroke-linejoin="round"/>
</svg>
