<svg width="36" height="36" viewBox="0 0 36 36" fill="none" xmlns="http://www.w3.org/2000/svg">
<path d="M29.49 18.27C29.49 17.48 29.42 16.73 29.3 16H18V20.51H24.47C24.18 21.99 23.33 23.24 22.07 24.09V27.09H25.93C28.19 25 29.49 21.92 29.49 18.27Z" fill="white"/>
<path d="M17.9991 30C21.2391 30 23.9491 28.92 25.9291 27.09L22.0691 24.09C20.9891 24.81 19.6191 25.25 17.9991 25.25C14.8691 25.25 12.2191 23.14 11.2691 20.29H7.28906V23.38C9.25906 27.3 13.3091 30 17.9991 30Z" fill="white"/>
<path d="M11.27 20.2901C11.02 19.5701 10.89 18.8001 10.89 18.0001C10.89 17.2001 11.03 16.4301 11.27 15.7101V12.6201H7.29C6.47 14.2401 6 16.0601 6 18.0001C6 19.9401 6.47 21.7601 7.29 23.3801L11.27 20.2901Z" fill="white"/>
<path d="M17.9991 10.75C19.7691 10.75 21.3491 11.36 22.5991 12.55L26.0191 9.13C23.9491 7.19 21.2391 6 17.9991 6C13.3091 6 9.25906 8.7 7.28906 12.62L11.2691 15.71C12.2191 12.86 14.8691 10.75 17.9991 10.75Z" fill="white"/>
</svg>
