<svg width="20" height="20" viewBox="0 0 20 20" fill="none" xmlns="http://www.w3.org/2000/svg">
<g opacity="0.4" clip-path="url(#clip0_1_162)">
<path d="M10 19C14.9706 19 19 14.9706 19 10C19 5.02944 14.9706 1 10 1C5.02944 1 1 5.02944 1 10C1 14.9706 5.02944 19 10 19Z" stroke="white" stroke-width="1.5" stroke-linecap="round" stroke-linejoin="round"/>
<path d="M7.5752 7.49999C7.77112 6.94304 8.15782 6.47341 8.66682 6.17426C9.17583 5.87512 9.77427 5.76577 10.3562 5.86558C10.9381 5.96539 11.4659 6.26792 11.8461 6.71959C12.2263 7.17126 12.4344 7.74292 12.4335 8.33332C12.4335 9.99999 9.93353 10.8333 9.93353 10.8333" stroke="white" stroke-width="1.5" stroke-linecap="round" stroke-linejoin="round"/>
<path d="M10 14.1667H10.0083" stroke="white" stroke-width="1.5" stroke-linecap="round" stroke-linejoin="round"/>
</g>
<defs>
<clipPath id="clip0_1_162">
<rect width="20" height="20" fill="white"/>
</clipPath>
</defs>
</svg>
