<svg width="16" height="16" viewBox="0 0 16 16" fill="none" xmlns="http://www.w3.org/2000/svg">
<g opacity="0.4" clip-path="url(#clip0_1_2393)">
<path d="M9.99984 4.66675H11.9998C12.4376 4.66675 12.871 4.75297 13.2754 4.92048C13.6799 5.088 14.0473 5.33353 14.3569 5.64306C14.6664 5.95259 14.9119 6.32005 15.0794 6.72447C15.247 7.12889 15.3332 7.56234 15.3332 8.00008C15.3332 8.43782 15.247 8.87127 15.0794 9.27569C14.9119 9.68011 14.6664 10.0476 14.3569 10.3571C14.0473 10.6666 13.6799 10.9122 13.2754 11.0797C12.871 11.2472 12.4376 11.3334 11.9998 11.3334H9.99984M5.99984 11.3334H3.99984C3.5621 11.3334 3.12864 11.2472 2.72423 11.0797C2.31981 10.9122 1.95234 10.6666 1.64281 10.3571C1.01769 9.73198 0.666504 8.88414 0.666504 8.00008C0.666504 7.11603 1.01769 6.26818 1.64281 5.64306C2.26794 5.01794 3.11578 4.66675 3.99984 4.66675H5.99984" stroke="white" stroke-width="1.5" stroke-linecap="round" stroke-linejoin="round"/>
<path d="M5.3335 8H10.6668" stroke="white" stroke-width="1.5" stroke-linecap="round" stroke-linejoin="round"/>
</g>
<defs>
<clipPath id="clip0_1_2393">
<rect width="16" height="16" fill="white"/>
</clipPath>
</defs>
</svg>
