<svg width="147" height="48" viewBox="0 0 147 48" fill="none" xmlns="http://www.w3.org/2000/svg">
<path fill-rule="evenodd" clip-rule="evenodd" d="M12.4216 12.4216C10.2593 14.5839 6.5378 16 0 16V24C7.4622 24 13.7407 22.4161 18.0784 18.0784C22.4161 13.7407 24 7.4622 24 0H16C16 6.5378 14.5839 10.2593 12.4216 12.4216Z" fill="white"/>
<path fill-rule="evenodd" clip-rule="evenodd" d="M12.4216 35.5784C10.2593 33.4161 6.5378 32 0 32V24C7.4622 24 13.7407 25.5839 18.0784 29.9216C22.4161 34.2593 24 40.5378 24 48H16C16 41.4622 14.5839 37.7407 12.4216 35.5784Z" fill="white"/>
<path fill-rule="evenodd" clip-rule="evenodd" d="M35.5784 12.4216C37.7407 14.5839 41.4622 16 48 16V24C40.5378 24 34.2592 22.4161 29.9216 18.0784C25.5839 13.7407 24 7.4622 24 0H32C32 6.5378 33.4161 10.2593 35.5784 12.4216Z" fill="white"/>
<path d="M83.4082 35.6471V33.3529H68.4919V12H66V35.6471H83.4082Z" fill="white"/>
<path d="M94.7156 36C100.401 36 104.157 32.2235 104.157 26.9294C104.157 21.6353 100.401 17.8588 94.7156 17.8588C89.0649 17.8588 85.3095 21.6353 85.3095 26.9294C85.3095 32.2235 89.0649 36 94.7156 36ZM94.7156 33.7412C89.9423 33.7412 87.7663 31.1647 87.7663 26.9294C87.7663 22.7294 89.9423 20.1176 94.7156 20.1176C99.4888 20.1176 101.7 22.7294 101.7 26.9294C101.7 31.1647 99.4888 33.7412 94.7156 33.7412Z" fill="white"/>
<path d="M114.913 34.2353C118.914 34.2353 121.476 32.2588 122.178 29.5765H122.354V34.1294C122.354 38.4706 120.599 39.8471 116.106 39.8471C112.246 39.8471 110.21 38.6471 110.21 35.5765H107.718C107.718 39.6353 111.298 42 116.001 42C121.23 42 124.845 39.7412 124.845 33.9882V18.2118H122.599V22.6941H122.424C121.722 19.5882 118.844 17.8588 115.194 17.8588C109.859 17.8588 106.595 21.2824 106.595 26.0471C106.595 30.8118 109.754 34.2353 114.913 34.2353ZM109.087 26.0471C109.087 21.6 111.859 20.0824 115.755 20.0824C119.756 20.0824 122.354 22.1294 122.354 25.5529V26.1529C122.354 29.8588 119.862 32.0118 115.58 32.0118C111.824 32.0118 109.087 30.4941 109.087 26.0471Z" fill="white"/>
<path d="M137.559 36C143.245 36 147 32.2235 147 26.9294C147 21.6353 143.245 17.8588 137.559 17.8588C131.908 17.8588 128.153 21.6353 128.153 26.9294C128.153 32.2235 131.908 36 137.559 36ZM137.559 33.7412C132.786 33.7412 130.61 31.1647 130.61 26.9294C130.61 22.7294 132.786 20.1176 137.559 20.1176C142.332 20.1176 144.543 22.7294 144.543 26.9294C144.543 31.1647 142.332 33.7412 137.559 33.7412Z" fill="white"/>
</svg>
