<svg width="32" height="32" viewBox="0 0 32 32" fill="none" xmlns="http://www.w3.org/2000/svg">
<path fill-rule="evenodd" clip-rule="evenodd" d="M8.28105 8.28105C6.8395 9.72259 4.35853 10.6667 0 10.6667V16C4.9748 16 9.1605 14.9441 12.0523 12.0523C14.9441 9.1605 16 4.9748 16 0H10.6667C10.6667 4.35853 9.72259 6.8395 8.28105 8.28105Z" fill="white"/>
<path fill-rule="evenodd" clip-rule="evenodd" d="M8.28105 23.719C6.8395 22.2774 4.35853 21.3333 0 21.3333V16C4.9748 16 9.16049 17.0559 12.0523 19.9477C14.9441 22.8395 16 27.0252 16 32H10.6667C10.6667 27.6415 9.72259 25.1605 8.28105 23.719Z" fill="white"/>
<path fill-rule="evenodd" clip-rule="evenodd" d="M23.7189 8.28105C25.1605 9.72259 27.6415 10.6667 32 10.6667V16C27.0252 16 22.8395 14.9441 19.9477 12.0523C17.0559 9.1605 16 4.9748 16 0H21.3333C21.3333 4.35853 22.2774 6.8395 23.7189 8.28105Z" fill="white"/>
</svg>
