<svg width="15" height="20" viewBox="0 0 15 20" fill="none" xmlns="http://www.w3.org/2000/svg">
<path d="M11.6716 16.7417C11.7337 16.938 11.7672 17.1472 11.7672 17.3644C11.7672 17.4236 11.7647 17.4822 11.7597 17.5401C11.6726 18.5764 10.8204 19.3897 9.78206 19.3897H6.16623V17.5401H9.39088C9.60701 17.5401 9.78206 17.3614 9.78206 17.1408C9.78206 16.9205 9.60701 16.7417 9.39088 16.7417H8.24637V14.8921H9.39088C9.60701 14.8921 9.78206 14.7134 9.78206 14.4929C9.78206 14.2725 9.60701 14.0937 9.39088 14.0937H3.80951V12.2441H9.78206C10.8204 12.2441 11.6726 13.0574 11.7597 14.0937C11.7647 14.1517 11.7672 14.2103 11.7672 14.2694C11.7672 14.4867 11.7337 14.6959 11.6716 14.8921C11.5563 15.2564 11.3427 15.5754 11.0628 15.817C11.3427 16.0585 11.5563 16.3775 11.6716 16.7417Z" fill="white"/>
<path d="M7.78828 14.8926V16.7422H5.62242V19.3902H3.80951L3.80951 14.8926H7.78828Z" fill="white"/>
<path fill-rule="evenodd" clip-rule="evenodd" d="M2.18117 4.89313C2.2339 4.86495 2.28729 4.83784 2.34114 4.81213C2.619 4.67945 2.95794 4.55997 3.3069 4.55997C4.19457 4.55997 4.81154 5.11778 5.16463 5.56148C5.1817 5.58292 5.19835 5.60437 5.21459 5.62569C5.25004 5.58761 5.28694 5.54922 5.32523 5.51071C5.742 5.09172 6.42846 4.55997 7.29099 4.55997C8.15352 4.55997 8.84001 5.09172 9.25674 5.51071C9.29505 5.54922 9.33195 5.58761 9.36738 5.62569C9.38362 5.60437 9.40029 5.58292 9.41733 5.56148C9.77045 5.11778 10.3874 4.55997 11.2751 4.55997C11.624 4.55997 11.963 4.67945 12.2408 4.81213C12.2947 4.83784 12.3481 4.86495 12.4008 4.89313C12.1084 4.33175 11.6671 3.78388 11.106 3.30043C10.0476 2.3883 8.65233 1.78708 7.29099 1.78708C5.92964 1.78708 4.53441 2.3883 3.47595 3.30043C2.91494 3.78388 2.47362 4.33175 2.18117 4.89313ZM12.5044 6.4334C12.4452 6.38743 12.3826 6.34017 12.3173 6.29315C12.1208 6.15149 11.9124 6.01962 11.7149 5.92535C11.5089 5.82694 11.3618 5.79237 11.2751 5.79237C10.9369 5.79237 10.6344 6.00483 10.3746 6.33136C10.2512 6.48645 10.1562 6.64488 10.0921 6.76596C10.0603 6.82573 10.0371 6.87454 10.0224 6.90664C10.0152 6.92266 10.0101 6.93443 10.0072 6.94121L10.0053 6.94571L8.85539 9.91843L12.5044 6.4334ZM7.29099 10.5624L8.74739 6.79739C8.65735 6.67729 8.53581 6.52879 8.38993 6.38213C8.04049 6.0309 7.65434 5.79237 7.29099 5.79237C6.92764 5.79237 6.54149 6.0309 6.19205 6.38213C6.04616 6.52879 5.92462 6.67729 5.83458 6.79739L7.29099 10.5624ZM4.57666 6.94571L4.57476 6.94121C4.57189 6.93443 4.56681 6.92266 4.55953 6.90664C4.54491 6.87454 4.52168 6.82573 4.48996 6.76596C4.42573 6.64488 4.3308 6.48645 4.20738 6.33136C3.94753 6.00483 3.6451 5.79237 3.3069 5.79237C3.2202 5.79237 3.07315 5.82694 2.86708 5.92535C2.66959 6.01962 2.46121 6.15149 2.26469 6.29315C2.1994 6.34017 2.13671 6.38743 2.07756 6.4334L5.7266 9.91843L4.57666 6.94571ZM10.0046 6.94749C10.0045 6.94786 10.0045 6.94786 10.0046 6.94749V6.94749ZM2.67814 2.36474C3.9182 1.29612 5.58765 0.554688 7.29099 0.554688C8.99434 0.554688 10.6638 1.29612 11.9038 2.36474C13.135 3.42574 14.0333 4.89165 14.0333 6.40857C14.0333 6.57747 13.9644 6.73897 13.8425 6.85531L7.71312 12.7092C7.47659 12.9352 7.10539 12.9352 6.86886 12.7092L0.739452 6.85531C0.617643 6.73897 0.548676 6.57747 0.548676 6.40857C0.548676 4.89165 1.44693 3.42574 2.67814 2.36474Z" fill="white"/>
</svg>
