<svg width="21" height="21" viewBox="0 0 21 21" fill="none" xmlns="http://www.w3.org/2000/svg">
<path d="M10.5788 7.53509C11.8582 7.53509 12.9243 8.46401 13.0665 9.67876C13.2086 10.8935 12.1425 11.8224 10.6498 11.8224C9.15722 11.8224 8.09105 10.8935 8.16213 9.67876C8.23321 8.46401 9.29937 7.53509 10.5788 7.53509ZM13.8483 6.10598L15.1988 14.0375C14.9856 13.9661 14.7723 13.9661 14.4169 13.9661C13.3508 14.0375 12.4979 14.7521 12.4268 15.5381C12.4268 15.7525 12.4268 15.9668 12.4979 16.1098H9.08614C9.15722 15.9668 9.15722 15.7525 9.15722 15.5381C9.01506 14.7521 8.16213 14.0375 7.09597 13.9661C6.81166 13.9661 6.52735 13.9661 6.31412 13.9661L7.3092 6.10598H5.53227L3.68425 16.1098C3.47102 17.3245 3.68425 18.2534 5.46119 18.2534H16.265C18.0419 18.2534 18.1841 17.3245 17.8997 16.1098L15.4831 6.10598H13.8483ZM18.3262 2.5332H2.68917C2.2627 2.5332 1.97839 2.81903 1.97839 3.24776V6.82053C1.97839 7.24927 2.2627 7.53509 2.68917 7.53509H3.75533L4.39503 4.67687H16.5493L17.4022 7.53509H18.3262C18.7527 7.53509 19.037 7.24927 19.037 6.82053V3.24776C19.037 2.81903 18.7527 2.5332 18.3262 2.5332Z" fill="white"/>
</svg>
