<svg width="21" height="21" viewBox="0 0 21 21" fill="none" xmlns="http://www.w3.org/2000/svg">
<g clip-path="url(#clip0_2335_52189)">
<path d="M19.2957 18.6592V16.8004C19.2957 15.0681 18.1171 13.6126 16.5222 13.1998M13.2864 2.19992C14.6417 2.75143 15.5977 4.08715 15.5977 5.64736C15.5977 7.20756 14.6417 8.54333 13.2864 9.09475M14.6732 18.6592C14.6732 16.927 14.6732 16.0609 14.3917 15.3777C14.0163 14.4668 13.2964 13.743 12.3903 13.3657C11.7107 13.0827 10.8493 13.0827 9.12619 13.0827H6.35269C4.62964 13.0827 3.76812 13.0827 3.08853 13.3657C2.18241 13.743 1.46251 14.4668 1.08719 15.3777C0.805695 16.0609 0.805695 16.927 0.805695 18.6592M11.4374 5.64736C11.4374 7.70057 9.78176 9.36503 7.73944 9.36503C5.69709 9.36503 4.04144 7.70057 4.04144 5.64736C4.04144 3.59414 5.69709 1.92969 7.73944 1.92969C9.78176 1.92969 11.4374 3.59414 11.4374 5.64736Z" stroke="white" stroke-width="1.2" stroke-linecap="round" stroke-linejoin="round"/>
</g>
<defs>
<clipPath id="clip0_2335_52189">
<rect width="19.8942" height="20" fill="white" transform="translate(0.343445 0.285156)"/>
</clipPath>
</defs>
</svg>
