<svg width="692" height="692" viewBox="0 0 692 692" fill="none" xmlns="http://www.w3.org/2000/svg">
<rect x="89.25" y="43.25" width="541.5" height="481.5" rx="40.75" stroke="#415C5C" stroke-opacity="0.4" stroke-width="1.5"/>
<g opacity="0.3137">
<path opacity="0.3137" d="M181.403 235.174C181.403 237.275 179.227 239 176.45 239C173.748 239 171.497 237.275 171.497 235.174C171.497 233.074 173.673 231.349 176.45 231.349C179.227 231.349 181.403 233.074 181.403 235.174Z" fill="url(#paint0_radial_235_1804)"/>
</g>
<g opacity="0.3137">
<path opacity="0.3137" d="M486.302 235.174C486.302 237.275 484.125 239 481.349 239C478.647 239 476.396 237.275 476.396 235.174C476.396 233.074 478.572 231.349 481.349 231.349C484.125 231.349 486.302 233.074 486.302 235.174Z" fill="url(#paint1_radial_235_1804)"/>
</g>
<g opacity="0.5884">
<path opacity="0.5884" d="M294.647 144.632C294.647 146.432 292.771 147.857 290.519 147.857C288.268 147.857 286.392 146.432 286.392 144.632C286.392 142.831 288.268 141.406 290.519 141.406C292.771 141.406 294.647 142.831 294.647 144.632Z" fill="url(#paint2_radial_235_1804)"/>
</g>
<g opacity="0.5884">
<path opacity="0.5884" d="M599.546 144.632C599.546 146.432 597.669 147.857 595.418 147.857C593.167 147.857 591.29 146.432 591.29 144.632C591.29 142.831 593.167 141.406 595.418 141.406C597.669 141.406 599.546 142.831 599.546 144.632Z" fill="url(#paint3_radial_235_1804)"/>
</g>
<g opacity="0.3677">
<path opacity="0.3677" d="M147.708 220.848C147.708 222.873 145.531 224.598 142.905 224.598C140.278 224.598 138.102 222.948 138.102 220.848C138.102 218.747 140.278 217.097 142.905 217.097C145.531 217.097 147.708 218.822 147.708 220.848Z" fill="url(#paint4_radial_235_1804)"/>
</g>
<g opacity="0.3677">
<path opacity="0.3677" d="M452.606 220.848C452.606 222.873 450.43 224.598 447.803 224.598C445.176 224.598 443 222.948 443 220.848C443 218.747 445.176 217.097 447.803 217.097C450.43 217.097 452.606 218.822 452.606 220.848Z" fill="url(#paint5_radial_235_1804)"/>
</g>
<g opacity="0.6095">
<path opacity="0.6095" d="M189.058 153.858C189.058 155.734 187.182 157.234 184.78 157.234C182.454 157.234 180.502 155.734 180.502 153.858C180.502 152.058 182.379 150.558 184.78 150.558C187.107 150.558 189.058 152.058 189.058 153.858Z" fill="url(#paint6_radial_235_1804)"/>
</g>
<g opacity="0.6095">
<path opacity="0.6095" d="M493.956 153.858C493.956 155.734 492.08 157.234 489.679 157.234C487.352 157.234 485.401 155.734 485.401 153.858C485.401 152.058 487.277 150.558 489.679 150.558C492.005 150.558 493.956 152.058 493.956 153.858Z" fill="url(#paint7_radial_235_1804)"/>
</g>
<g opacity="0.3137">
<path opacity="0.3137" d="M181.403 235.174C181.403 237.275 179.227 239 176.45 239C173.748 239 171.497 237.275 171.497 235.174C171.497 233.074 173.673 231.349 176.45 231.349C179.227 231.349 181.403 233.074 181.403 235.174Z" fill="url(#paint8_radial_235_1804)"/>
</g>
<g opacity="0.3137">
<path opacity="0.3137" d="M486.302 235.174C486.302 237.275 484.125 239 481.349 239C478.647 239 476.396 237.275 476.396 235.174C476.396 233.074 478.572 231.349 481.349 231.349C484.125 231.349 486.302 233.074 486.302 235.174Z" fill="url(#paint9_radial_235_1804)"/>
</g>
<g opacity="0.5884">
<path opacity="0.5884" d="M294.647 144.632C294.647 146.432 292.771 147.857 290.519 147.857C288.268 147.857 286.392 146.432 286.392 144.632C286.392 142.831 288.268 141.406 290.519 141.406C292.771 141.406 294.647 142.831 294.647 144.632Z" fill="url(#paint10_radial_235_1804)"/>
</g>
<g opacity="0.5884">
<path opacity="0.5884" d="M599.546 144.632C599.546 146.432 597.669 147.857 595.418 147.857C593.167 147.857 591.29 146.432 591.29 144.632C591.29 142.831 593.167 141.406 595.418 141.406C597.669 141.406 599.546 142.831 599.546 144.632Z" fill="url(#paint11_radial_235_1804)"/>
</g>
<g opacity="0.3677">
<path opacity="0.3677" d="M147.708 220.848C147.708 222.873 145.531 224.598 142.905 224.598C140.278 224.598 138.102 222.948 138.102 220.848C138.102 218.747 140.278 217.097 142.905 217.097C145.531 217.097 147.708 218.822 147.708 220.848Z" fill="url(#paint12_radial_235_1804)"/>
</g>
<g opacity="0.3677">
<path opacity="0.3677" d="M452.606 220.848C452.606 222.873 450.43 224.598 447.803 224.598C445.176 224.598 443 222.948 443 220.848C443 218.747 445.176 217.097 447.803 217.097C450.43 217.097 452.606 218.822 452.606 220.848Z" fill="url(#paint13_radial_235_1804)"/>
</g>
<g opacity="0.6095">
<path opacity="0.6095" d="M189.058 153.858C189.058 155.734 187.182 157.234 184.78 157.234C182.454 157.234 180.502 155.734 180.502 153.858C180.502 152.058 182.379 150.558 184.78 150.558C187.107 150.558 189.058 152.058 189.058 153.858Z" fill="url(#paint14_radial_235_1804)"/>
</g>
<g opacity="0.6095">
<path opacity="0.6095" d="M493.956 153.858C493.956 155.734 492.08 157.234 489.679 157.234C487.352 157.234 485.401 155.734 485.401 153.858C485.401 152.058 487.277 150.558 489.679 150.558C492.005 150.558 493.956 152.058 493.956 153.858Z" fill="url(#paint15_radial_235_1804)"/>
</g>
<g opacity="0.3137">
<path opacity="0.3137" d="M181.403 235.174C181.403 237.275 179.227 239 176.45 239C173.748 239 171.497 237.275 171.497 235.174C171.497 233.074 173.673 231.349 176.45 231.349C179.227 231.349 181.403 233.074 181.403 235.174Z" fill="url(#paint16_radial_235_1804)"/>
</g>
<g opacity="0.3137">
<path opacity="0.3137" d="M286.906 234.826C286.906 236.926 284.73 238.652 281.953 238.652C279.251 238.652 277 236.926 277 234.826C277 232.725 279.176 231 281.953 231C284.73 231 286.906 232.725 286.906 234.826Z" fill="url(#paint17_radial_235_1804)"/>
</g>
<g opacity="0.3137">
<path opacity="0.3137" d="M486.302 235.174C486.302 237.275 484.125 239 481.349 239C478.647 239 476.396 237.275 476.396 235.174C476.396 233.074 478.572 231.349 481.349 231.349C484.125 231.349 486.302 233.074 486.302 235.174Z" fill="url(#paint18_radial_235_1804)"/>
</g>
<g opacity="0.5884">
<path opacity="0.5884" d="M294.647 144.632C294.647 146.432 292.771 147.857 290.519 147.857C288.268 147.857 286.392 146.432 286.392 144.632C286.392 142.831 288.268 141.406 290.519 141.406C292.771 141.406 294.647 142.831 294.647 144.632Z" fill="url(#paint19_radial_235_1804)"/>
</g>
<g opacity="0.5884">
<path opacity="0.5884" d="M599.546 144.632C599.546 146.432 597.669 147.857 595.418 147.857C593.167 147.857 591.29 146.432 591.29 144.632C591.29 142.831 593.167 141.406 595.418 141.406C597.669 141.406 599.546 142.831 599.546 144.632Z" fill="url(#paint20_radial_235_1804)"/>
</g>
<g opacity="0.3677">
<path opacity="0.3677" d="M147.708 220.848C147.708 222.873 145.531 224.598 142.905 224.598C140.278 224.598 138.102 222.948 138.102 220.848C138.102 218.747 140.278 217.097 142.905 217.097C145.531 217.097 147.708 218.822 147.708 220.848Z" fill="url(#paint21_radial_235_1804)"/>
</g>
<g opacity="0.3677">
<path opacity="0.3677" d="M452.606 220.848C452.606 222.873 450.43 224.598 447.803 224.598C445.176 224.598 443 222.948 443 220.848C443 218.747 445.176 217.097 447.803 217.097C450.43 217.097 452.606 218.822 452.606 220.848Z" fill="url(#paint22_radial_235_1804)"/>
</g>
<g opacity="0.6095">
<path opacity="0.6095" d="M189.058 153.858C189.058 155.734 187.182 157.234 184.78 157.234C182.454 157.234 180.502 155.734 180.502 153.858C180.502 152.058 182.379 150.558 184.78 150.558C187.107 150.558 189.058 152.058 189.058 153.858Z" fill="url(#paint23_radial_235_1804)"/>
</g>
<g opacity="0.6095">
<path opacity="0.6095" d="M493.956 153.858C493.956 155.734 492.08 157.234 489.679 157.234C487.352 157.234 485.401 155.734 485.401 153.858C485.401 152.058 487.277 150.558 489.679 150.558C492.005 150.558 493.956 152.058 493.956 153.858Z" fill="url(#paint24_radial_235_1804)"/>
<path opacity="0.6095" d="M392.555 137.301C392.555 139.176 390.679 140.676 388.278 140.676C385.951 140.676 384 139.176 384 137.301C384 135.5 385.876 134 388.278 134C390.604 134 392.555 135.5 392.555 137.301Z" fill="url(#paint25_radial_235_1804)"/>
</g>
<g opacity="0.3511">
<path opacity="0.3511" d="M242.19 113.275C242.19 110.799 244.742 108.774 247.893 108.774C251.045 108.774 253.672 110.799 253.672 113.275C253.672 115.75 251.12 117.776 247.893 117.776C244.742 117.776 242.19 115.75 242.19 113.275Z" fill="url(#paint26_radial_235_1804)"/>
</g>
<g opacity="0.3511">
<path opacity="0.3511" d="M547.088 113.275C547.088 110.799 549.64 108.774 552.792 108.774C555.944 108.774 558.57 110.799 558.57 113.275C558.57 115.75 556.019 117.776 552.792 117.776C549.64 117.776 547.088 115.75 547.088 113.275Z" fill="url(#paint27_radial_235_1804)"/>
</g>
<g opacity="0.3545">
<path opacity="0.3545" d="M273.411 77.7179C273.411 75.0923 276.112 72.9919 279.414 72.9919C282.716 72.9919 285.418 75.0923 285.418 77.7179C285.418 80.3434 282.716 82.4438 279.414 82.4438C276.112 82.4438 273.411 80.3434 273.411 77.7179Z" fill="url(#paint28_radial_235_1804)"/>
</g>
<g opacity="0.3545">
<path opacity="0.3545" d="M578.309 77.7179C578.309 75.0923 581.011 72.9919 584.313 72.9919C587.615 72.9919 590.317 75.0923 590.317 77.7179C590.317 80.3434 587.615 82.4438 584.313 82.4438C581.011 82.4438 578.309 80.3434 578.309 77.7179Z" fill="url(#paint29_radial_235_1804)"/>
</g>
<g opacity="0.3511">
<path opacity="0.3511" d="M242.19 113.275C242.19 110.799 244.742 108.774 247.893 108.774C251.045 108.774 253.672 110.799 253.672 113.275C253.672 115.75 251.12 117.776 247.893 117.776C244.742 117.776 242.19 115.75 242.19 113.275Z" fill="url(#paint30_radial_235_1804)"/>
</g>
<g opacity="0.3511">
<path opacity="0.3511" d="M547.088 113.275C547.088 110.799 549.64 108.774 552.792 108.774C555.944 108.774 558.57 110.799 558.57 113.275C558.57 115.75 556.019 117.776 552.792 117.776C549.64 117.776 547.088 115.75 547.088 113.275Z" fill="url(#paint31_radial_235_1804)"/>
</g>
<g opacity="0.3545">
<path opacity="0.3545" d="M273.411 77.7179C273.411 75.0923 276.112 72.9919 279.414 72.9919C282.716 72.9919 285.418 75.0923 285.418 77.7179C285.418 80.3434 282.716 82.4438 279.414 82.4438C276.112 82.4438 273.411 80.3434 273.411 77.7179Z" fill="url(#paint32_radial_235_1804)"/>
</g>
<g opacity="0.3545">
<path opacity="0.3545" d="M440 69.7259C440 67.1004 442.702 65 446.004 65C449.306 65 452.007 67.1004 452.007 69.7259C452.007 72.3514 449.306 74.4519 446.004 74.4519C442.702 74.4519 440 72.3514 440 69.7259Z" fill="url(#paint33_radial_235_1804)"/>
</g>
<g opacity="0.3545">
<path opacity="0.3545" d="M578.309 77.7179C578.309 75.0923 581.011 72.9919 584.313 72.9919C587.615 72.9919 590.317 75.0923 590.317 77.7179C590.317 80.3434 587.615 82.4438 584.313 82.4438C581.011 82.4438 578.309 80.3434 578.309 77.7179Z" fill="url(#paint34_radial_235_1804)"/>
</g>
<g opacity="0.3511">
<path opacity="0.3511" d="M242.19 113.275C242.19 110.799 244.742 108.774 247.893 108.774C251.045 108.774 253.672 110.799 253.672 113.275C253.672 115.75 251.12 117.776 247.893 117.776C244.742 117.776 242.19 115.75 242.19 113.275Z" fill="url(#paint35_radial_235_1804)"/>
</g>
<g opacity="0.3511">
<path opacity="0.3511" d="M547.088 113.275C547.088 110.799 549.64 108.774 552.792 108.774C555.944 108.774 558.57 110.799 558.57 113.275C558.57 115.75 556.019 117.776 552.792 117.776C549.64 117.776 547.088 115.75 547.088 113.275Z" fill="url(#paint36_radial_235_1804)"/>
</g>
<g opacity="0.1" filter="url(#filter0_f_235_1804)">
<circle cx="346" cy="346" r="202" fill="#5ED5A8"/>
</g>
<path d="M267.662 511.234C254.207 504.137 227.878 489.426 222.995 454.469C221.39 440.84 222.446 427.029 226.107 413.803L226.703 411.385C238.26 369.013 295.348 298.435 344.405 247.356C349.007 242.545 353.53 237.929 357.975 233.508C357.975 233.508 358.285 233.196 358.435 233.025C381.424 210.108 401.212 192.957 411.622 187.222C432.523 175.567 442.112 183.994 446.333 191.93C448.539 196.144 449.642 200.848 449.539 205.603C449.266 231.823 446.631 257.964 441.666 283.711C441.629 284.007 441.565 284.298 441.473 284.581C424.486 372.529 385.227 442.584 367.75 479.964C367.238 480.985 366.765 482.028 366.337 482.994L366.085 483.52C344.124 530.185 285.621 520.725 267.662 511.234Z" fill="url(#paint37_linear_235_1804)"/>
<path opacity="0.15" d="M365.991 483.543L366.867 458.597C401.381 405.225 426.562 346.37 441.332 284.552C424.484 372.527 385.225 442.582 367.748 479.963C367.236 480.984 366.763 482.027 366.334 482.993L365.991 483.543Z" fill="#43675E"/>
<path opacity="0.15" d="M222.881 454.531C221.275 440.902 222.332 427.091 225.993 413.865L226.588 411.447C238.146 369.074 295.233 298.497 344.29 247.418C340.99 251.837 235.859 394.497 227.731 440.631C226.928 445.509 225.287 450.212 222.881 454.531Z" fill="#43675E"/>
<path d="M267.661 511.235C249.849 501.803 209.428 479.085 225.992 413.867C244.752 391.657 282.813 386.27 317.683 402.685C352.553 419.1 372.493 451.495 367.658 479.989C367.146 481.01 366.672 482.053 366.244 483.019C344.569 530.263 285.697 520.77 267.661 511.235Z" fill="#354E4C"/>
<path d="M269.433 505.287C302.786 520.974 339.656 512.789 351.785 487.004C363.913 461.218 346.706 427.597 313.353 411.91C279.999 396.222 243.129 404.407 231.001 430.193C218.873 455.978 236.079 489.599 269.433 505.287Z" fill="#1B232A"/>
<path d="M185.258 389.858C186.355 387.601 230.963 298.176 293.872 328.844L264.975 375.273L258.724 385.294C258.724 385.294 227.261 366.69 185.258 389.858Z" fill="#6EC5A2"/>
<path d="M403.997 508.608C401.243 460.709 368.737 443.955 368.737 443.955L373.68 433.695L397.716 384.149C457.217 421.032 405.296 506.492 403.989 508.577L403.997 508.608Z" fill="#6EC5A2"/>
<path d="M343.265 317.246C347.929 334.651 365.819 344.98 383.224 340.316C400.629 335.653 410.958 317.763 406.294 300.358C401.631 282.952 383.741 272.624 366.335 277.287C348.93 281.951 338.601 299.841 343.265 317.246Z" fill="white"/>
<path d="M352.514 314.765C355.809 327.06 368.446 334.356 380.741 331.062C393.036 327.767 400.332 315.13 397.038 302.835C393.743 290.54 381.106 283.244 368.811 286.538C356.516 289.833 349.22 302.47 352.514 314.765Z" fill="#1B232A"/>
<path d="M441.333 284.553C419.325 239.064 383.733 231.68 357.926 233.456C357.926 233.456 358.236 233.144 358.386 232.973C381.375 210.055 401.163 192.905 411.573 187.17C432.474 175.514 442.063 183.942 446.284 191.877C448.49 196.091 449.593 200.795 449.49 205.55C449.217 231.77 446.582 257.912 441.617 283.659L441.333 284.553Z" fill="#6EC5A2"/>
<path d="M322.105 515.203C327.609 502.888 328.152 488.926 323.619 476.222C319.087 463.518 309.829 453.052 297.773 447.003C285.717 440.954 271.792 439.788 258.898 443.748C246.005 447.709 235.135 456.49 228.554 468.264C228.554 468.264 195.601 518.857 203.387 634.762C203.387 634.762 251.964 616.705 314.693 526.386C317.627 522.986 320.117 519.229 322.105 515.203Z" fill="url(#paint38_linear_235_1804)"/>
<path d="M306.272 498.497C308.098 494.885 309.195 490.949 309.5 486.913C309.805 482.877 309.311 478.821 308.049 474.976C306.786 471.131 304.778 467.572 302.14 464.503C299.502 461.434 296.285 458.914 292.673 457.088C289.061 455.262 285.125 454.165 281.089 453.861C277.053 453.556 272.997 454.049 269.152 455.312C265.307 456.574 261.748 458.582 258.679 461.221C255.61 463.859 253.09 467.076 251.264 470.687C251.264 470.687 231.902 500.423 236.49 568.483C236.49 568.483 265.009 557.896 301.846 504.821C303.58 502.906 305.067 500.782 306.272 498.497Z" fill="white"/>
<path d="M185.257 389.856C186.351 388.81 219.38 357.802 264.973 375.271L258.723 385.292C258.723 385.292 227.26 366.687 185.257 389.856Z" fill="url(#paint39_linear_235_1804)"/>
<path d="M403.995 508.607C401.241 460.709 368.735 443.955 368.735 443.955L373.678 433.695C373.678 433.695 409.992 462.586 404.017 508.569L403.995 508.607Z" fill="url(#paint40_linear_235_1804)"/>
<defs>
<filter id="filter0_f_235_1804" x="0" y="0" width="692" height="692" filterUnits="userSpaceOnUse" color-interpolation-filters="sRGB">
<feFlood flood-opacity="0" result="BackgroundImageFix"/>
<feBlend mode="normal" in="SourceGraphic" in2="BackgroundImageFix" result="shape"/>
<feGaussianBlur stdDeviation="72" result="effect1_foregroundBlur_235_1804"/>
</filter>
<radialGradient id="paint0_radial_235_1804" cx="0" cy="0" r="1" gradientUnits="userSpaceOnUse" gradientTransform="translate(176.468 235.185) scale(4.92042 3.84794)">
<stop stop-color="#FFFFFC"/>
<stop offset="1" stop-color="#1B1711"/>
</radialGradient>
<radialGradient id="paint1_radial_235_1804" cx="0" cy="0" r="1" gradientUnits="userSpaceOnUse" gradientTransform="translate(481.367 235.185) scale(4.92042 3.84794)">
<stop stop-color="#FFFFFC"/>
<stop offset="1" stop-color="#1B1711"/>
</radialGradient>
<radialGradient id="paint2_radial_235_1804" cx="0" cy="0" r="1" gradientUnits="userSpaceOnUse" gradientTransform="translate(290.508 144.611) scale(4.11861 3.22127)">
<stop stop-color="#FFFFFC"/>
<stop offset="1" stop-color="#1B1711"/>
</radialGradient>
<radialGradient id="paint3_radial_235_1804" cx="0" cy="0" r="1" gradientUnits="userSpaceOnUse" gradientTransform="translate(595.406 144.611) scale(4.11861 3.22127)">
<stop stop-color="#FFFFFC"/>
<stop offset="1" stop-color="#1B1711"/>
</radialGradient>
<radialGradient id="paint4_radial_235_1804" cx="0" cy="0" r="1" gradientUnits="userSpaceOnUse" gradientTransform="translate(142.937 220.849) scale(4.77113 3.73041)">
<stop stop-color="#FFFFFC"/>
<stop offset="1" stop-color="#1B1711"/>
</radialGradient>
<radialGradient id="paint5_radial_235_1804" cx="0" cy="0" r="1" gradientUnits="userSpaceOnUse" gradientTransform="translate(447.835 220.849) scale(4.77113 3.73041)">
<stop stop-color="#FFFFFC"/>
<stop offset="1" stop-color="#1B1711"/>
</radialGradient>
<radialGradient id="paint6_radial_235_1804" cx="0" cy="0" r="1" gradientUnits="userSpaceOnUse" gradientTransform="translate(184.779 153.897) scale(4.25868 3.32972)">
<stop stop-color="#FFFFFC"/>
<stop offset="1" stop-color="#1B1711"/>
</radialGradient>
<radialGradient id="paint7_radial_235_1804" cx="0" cy="0" r="1" gradientUnits="userSpaceOnUse" gradientTransform="translate(489.678 153.897) scale(4.25868 3.32972)">
<stop stop-color="#FFFFFC"/>
<stop offset="1" stop-color="#1B1711"/>
</radialGradient>
<radialGradient id="paint8_radial_235_1804" cx="0" cy="0" r="1" gradientUnits="userSpaceOnUse" gradientTransform="translate(176.468 235.185) scale(4.92042 3.84794)">
<stop stop-color="#FFFFFC"/>
<stop offset="1" stop-color="#1B1711"/>
</radialGradient>
<radialGradient id="paint9_radial_235_1804" cx="0" cy="0" r="1" gradientUnits="userSpaceOnUse" gradientTransform="translate(481.367 235.185) scale(4.92042 3.84794)">
<stop stop-color="#FFFFFC"/>
<stop offset="1" stop-color="#1B1711"/>
</radialGradient>
<radialGradient id="paint10_radial_235_1804" cx="0" cy="0" r="1" gradientUnits="userSpaceOnUse" gradientTransform="translate(290.508 144.611) scale(4.11861 3.22127)">
<stop stop-color="#FFFFFC"/>
<stop offset="1" stop-color="#1B1711"/>
</radialGradient>
<radialGradient id="paint11_radial_235_1804" cx="0" cy="0" r="1" gradientUnits="userSpaceOnUse" gradientTransform="translate(595.406 144.611) scale(4.11861 3.22127)">
<stop stop-color="#FFFFFC"/>
<stop offset="1" stop-color="#1B1711"/>
</radialGradient>
<radialGradient id="paint12_radial_235_1804" cx="0" cy="0" r="1" gradientUnits="userSpaceOnUse" gradientTransform="translate(142.937 220.849) scale(4.77113 3.73041)">
<stop stop-color="#FFFFFC"/>
<stop offset="1" stop-color="#1B1711"/>
</radialGradient>
<radialGradient id="paint13_radial_235_1804" cx="0" cy="0" r="1" gradientUnits="userSpaceOnUse" gradientTransform="translate(447.835 220.849) scale(4.77113 3.73041)">
<stop stop-color="#FFFFFC"/>
<stop offset="1" stop-color="#1B1711"/>
</radialGradient>
<radialGradient id="paint14_radial_235_1804" cx="0" cy="0" r="1" gradientUnits="userSpaceOnUse" gradientTransform="translate(184.779 153.897) scale(4.25868 3.32972)">
<stop stop-color="#FFFFFC"/>
<stop offset="1" stop-color="#1B1711"/>
</radialGradient>
<radialGradient id="paint15_radial_235_1804" cx="0" cy="0" r="1" gradientUnits="userSpaceOnUse" gradientTransform="translate(489.678 153.897) scale(4.25868 3.32972)">
<stop stop-color="#FFFFFC"/>
<stop offset="1" stop-color="#1B1711"/>
</radialGradient>
<radialGradient id="paint16_radial_235_1804" cx="0" cy="0" r="1" gradientUnits="userSpaceOnUse" gradientTransform="translate(176.468 235.185) scale(4.92042 3.84794)">
<stop stop-color="#FFFFFC"/>
<stop offset="1" stop-color="#1B1711"/>
</radialGradient>
<radialGradient id="paint17_radial_235_1804" cx="0" cy="0" r="1" gradientUnits="userSpaceOnUse" gradientTransform="translate(281.971 234.836) scale(4.92042 3.84794)">
<stop stop-color="#FFFFFC"/>
<stop offset="1" stop-color="#1B1711"/>
</radialGradient>
<radialGradient id="paint18_radial_235_1804" cx="0" cy="0" r="1" gradientUnits="userSpaceOnUse" gradientTransform="translate(481.367 235.185) scale(4.92042 3.84794)">
<stop stop-color="#FFFFFC"/>
<stop offset="1" stop-color="#1B1711"/>
</radialGradient>
<radialGradient id="paint19_radial_235_1804" cx="0" cy="0" r="1" gradientUnits="userSpaceOnUse" gradientTransform="translate(290.508 144.611) scale(4.11861 3.22127)">
<stop stop-color="#FFFFFC"/>
<stop offset="1" stop-color="#1B1711"/>
</radialGradient>
<radialGradient id="paint20_radial_235_1804" cx="0" cy="0" r="1" gradientUnits="userSpaceOnUse" gradientTransform="translate(595.406 144.611) scale(4.11861 3.22127)">
<stop stop-color="#FFFFFC"/>
<stop offset="1" stop-color="#1B1711"/>
</radialGradient>
<radialGradient id="paint21_radial_235_1804" cx="0" cy="0" r="1" gradientUnits="userSpaceOnUse" gradientTransform="translate(142.937 220.849) scale(4.77113 3.73041)">
<stop stop-color="#FFFFFC"/>
<stop offset="1" stop-color="#1B1711"/>
</radialGradient>
<radialGradient id="paint22_radial_235_1804" cx="0" cy="0" r="1" gradientUnits="userSpaceOnUse" gradientTransform="translate(447.835 220.849) scale(4.77113 3.73041)">
<stop stop-color="#FFFFFC"/>
<stop offset="1" stop-color="#1B1711"/>
</radialGradient>
<radialGradient id="paint23_radial_235_1804" cx="0" cy="0" r="1" gradientUnits="userSpaceOnUse" gradientTransform="translate(184.779 153.897) scale(4.25868 3.32972)">
<stop stop-color="#FFFFFC"/>
<stop offset="1" stop-color="#1B1711"/>
</radialGradient>
<radialGradient id="paint24_radial_235_1804" cx="0" cy="0" r="1" gradientUnits="userSpaceOnUse" gradientTransform="translate(489.678 153.897) scale(4.25868 3.32972)">
<stop stop-color="#FFFFFC"/>
<stop offset="1" stop-color="#1B1711"/>
</radialGradient>
<radialGradient id="paint25_radial_235_1804" cx="0" cy="0" r="1" gradientUnits="userSpaceOnUse" gradientTransform="translate(388.277 137.339) scale(4.25868 3.32972)">
<stop stop-color="#FFFFFC"/>
<stop offset="1" stop-color="#1B1711"/>
</radialGradient>
<radialGradient id="paint26_radial_235_1804" cx="0" cy="0" r="1" gradientUnits="userSpaceOnUse" gradientTransform="translate(247.899 113.307) rotate(180) scale(5.73744 4.48663)">
<stop stop-color="#FFFFFC"/>
<stop offset="1" stop-color="#1B1711"/>
</radialGradient>
<radialGradient id="paint27_radial_235_1804" cx="0" cy="0" r="1" gradientUnits="userSpaceOnUse" gradientTransform="translate(552.798 113.307) rotate(180) scale(5.73744 4.48663)">
<stop stop-color="#FFFFFC"/>
<stop offset="1" stop-color="#1B1711"/>
</radialGradient>
<radialGradient id="paint28_radial_235_1804" cx="0" cy="0" r="1" gradientUnits="userSpaceOnUse" gradientTransform="translate(279.464 77.723) rotate(180) scale(6.02463 4.71134)">
<stop stop-color="#FFFFFC"/>
<stop offset="1" stop-color="#1B1711"/>
</radialGradient>
<radialGradient id="paint29_radial_235_1804" cx="0" cy="0" r="1" gradientUnits="userSpaceOnUse" gradientTransform="translate(584.362 77.723) rotate(180) scale(6.02463 4.71134)">
<stop stop-color="#FFFFFC"/>
<stop offset="1" stop-color="#1B1711"/>
</radialGradient>
<radialGradient id="paint30_radial_235_1804" cx="0" cy="0" r="1" gradientUnits="userSpaceOnUse" gradientTransform="translate(247.899 113.307) rotate(180) scale(5.73744 4.48663)">
<stop stop-color="#FFFFFC"/>
<stop offset="1" stop-color="#1B1711"/>
</radialGradient>
<radialGradient id="paint31_radial_235_1804" cx="0" cy="0" r="1" gradientUnits="userSpaceOnUse" gradientTransform="translate(552.798 113.307) rotate(180) scale(5.73744 4.48663)">
<stop stop-color="#FFFFFC"/>
<stop offset="1" stop-color="#1B1711"/>
</radialGradient>
<radialGradient id="paint32_radial_235_1804" cx="0" cy="0" r="1" gradientUnits="userSpaceOnUse" gradientTransform="translate(279.464 77.723) rotate(180) scale(6.02463 4.71134)">
<stop stop-color="#FFFFFC"/>
<stop offset="1" stop-color="#1B1711"/>
</radialGradient>
<radialGradient id="paint33_radial_235_1804" cx="0" cy="0" r="1" gradientUnits="userSpaceOnUse" gradientTransform="translate(446.053 69.731) rotate(180) scale(6.02463 4.71134)">
<stop stop-color="#FFFFFC"/>
<stop offset="1" stop-color="#1B1711"/>
</radialGradient>
<radialGradient id="paint34_radial_235_1804" cx="0" cy="0" r="1" gradientUnits="userSpaceOnUse" gradientTransform="translate(584.362 77.723) rotate(180) scale(6.02463 4.71134)">
<stop stop-color="#FFFFFC"/>
<stop offset="1" stop-color="#1B1711"/>
</radialGradient>
<radialGradient id="paint35_radial_235_1804" cx="0" cy="0" r="1" gradientUnits="userSpaceOnUse" gradientTransform="translate(247.899 113.307) rotate(180) scale(5.73744 4.48663)">
<stop stop-color="#FFFFFC"/>
<stop offset="1" stop-color="#1B1711"/>
</radialGradient>
<radialGradient id="paint36_radial_235_1804" cx="0" cy="0" r="1" gradientUnits="userSpaceOnUse" gradientTransform="translate(552.798 113.307) rotate(180) scale(5.73744 4.48663)">
<stop stop-color="#FFFFFC"/>
<stop offset="1" stop-color="#1B1711"/>
</radialGradient>
<linearGradient id="paint37_linear_235_1804" x1="-17397.9" y1="104767" x2="-36067.6" y2="134768" gradientUnits="userSpaceOnUse">
<stop stop-color="white"/>
<stop offset="0.38" stop-color="#99D0B5"/>
<stop offset="0.99" stop-color="#5F9D84"/>
</linearGradient>
<linearGradient id="paint38_linear_235_1804" x1="298.327" y1="443.808" x2="216.924" y2="611.628" gradientUnits="userSpaceOnUse">
<stop stop-color="#EE7671"/>
<stop offset="1" stop-color="#1B232A" stop-opacity="0"/>
</linearGradient>
<linearGradient id="paint39_linear_235_1804" x1="-11660.8" y1="10761.7" x2="-11742" y2="14592.1" gradientUnits="userSpaceOnUse">
<stop stop-color="#45695E"/>
<stop offset="0.87" stop-color="#1B232A"/>
</linearGradient>
<linearGradient id="paint40_linear_235_1804" x1="4527.16" y1="27986.4" x2="1262.29" y2="29934.9" gradientUnits="userSpaceOnUse">
<stop stop-color="#45695E"/>
<stop offset="0.87" stop-color="#1B232A"/>
</linearGradient>
</defs>
</svg>
