<svg width="226" height="43" viewBox="0 0 226 43" fill="none" xmlns="http://www.w3.org/2000/svg">
<path d="M40.426 27.18C43.774 27.18 45.862 25.326 45.862 22.014V14.94H44.584V21.96C44.584 24.714 43.234 25.92 40.426 25.92C37.618 25.92 36.268 24.714 36.268 21.96V14.94H34.99V22.014C34.99 25.326 37.078 27.18 40.426 27.18ZM51.8356 27.18C54.1396 27.18 55.7956 26.298 55.7956 24.624C55.7956 23.184 54.7696 22.536 52.8616 22.266L50.6836 21.96C49.2076 21.744 48.7396 21.42 48.7396 20.502C48.7396 19.44 49.5136 18.99 51.3856 18.99C53.6536 18.99 54.3556 19.71 54.3556 21.042V21.132H55.6336V21.096C55.6336 19.008 53.9776 17.928 51.4216 17.928C48.9736 17.928 47.4796 18.918 47.4796 20.484C47.4796 21.96 48.5056 22.59 50.1256 22.806L52.5016 23.148C53.9776 23.382 54.5356 23.688 54.5356 24.624C54.5356 25.65 53.8516 26.118 51.8536 26.118C49.6756 26.118 48.7936 25.596 48.7936 24.102V23.994H47.5156V24.03C47.5156 26.082 49.0996 27.18 51.8356 27.18ZM61.7045 27.18C64.1885 27.18 66.0245 25.902 66.0245 24.048V23.922H64.7465V24.048C64.7465 25.344 63.7745 26.118 61.6865 26.118C59.3285 26.118 58.3025 24.912 58.2305 22.914H66.0605C66.1145 22.68 66.1505 22.41 66.1505 22.086C66.1505 19.44 64.2965 17.928 61.6865 17.928C58.8245 17.928 57.0245 19.854 57.0245 22.554C57.0245 25.38 58.8425 27.18 61.7045 27.18ZM61.6685 18.99C63.7565 18.99 64.9445 19.98 64.9445 21.852C64.9445 21.942 64.9445 22.032 64.9445 22.122H58.2305C58.3205 20.178 59.3645 18.99 61.6685 18.99ZM69.1236 27V22.176C69.1236 20.178 69.9156 19.044 71.7156 19.044C73.2636 19.044 73.8936 19.782 73.8936 21.294V21.978H75.1716V21.096C75.1716 19.44 74.2716 17.928 72.2196 17.928C70.3656 17.928 69.3576 19.116 69.0876 20.538H68.9976V18.108H67.8456V27H69.1236Z" fill="white"/>
<rect x="117" y="1" width="108" height="41" rx="7" fill="#27393C"/>
<path d="M140.452 27C142.756 27 144.232 25.758 144.232 23.67C144.232 22.122 143.278 21.024 141.424 20.718V20.61C143.08 20.358 143.854 19.314 143.854 17.928C143.854 16.02 142.432 14.94 140.272 14.94H133.936V27H140.452ZM135.214 16.11H140.164C141.802 16.11 142.576 16.758 142.576 18.162C142.576 19.548 141.694 20.196 140.056 20.196H135.214V16.11ZM135.214 21.294H140.344C142.018 21.294 142.936 21.996 142.936 23.544C142.936 25.128 142.054 25.83 140.344 25.83H135.214V21.294ZM149.495 27.18C151.709 27.18 152.987 25.74 153.293 24.228H153.383V27H154.535V18.108H153.257V22.428C153.257 24.714 152.123 26.028 149.945 26.028C147.893 26.028 146.993 24.966 146.993 23.112V18.108H145.715V23.31C145.715 25.416 146.957 27.18 149.495 27.18ZM160.591 27.18C162.895 27.18 164.551 26.298 164.551 24.624C164.551 23.184 163.525 22.536 161.617 22.266L159.439 21.96C157.963 21.744 157.495 21.42 157.495 20.502C157.495 19.44 158.269 18.99 160.141 18.99C162.409 18.99 163.111 19.71 163.111 21.042V21.132H164.389V21.096C164.389 19.008 162.733 17.928 160.177 17.928C157.729 17.928 156.235 18.918 156.235 20.484C156.235 21.96 157.261 22.59 158.881 22.806L161.257 23.148C162.733 23.382 163.291 23.688 163.291 24.624C163.291 25.65 162.607 26.118 160.609 26.118C158.431 26.118 157.549 25.596 157.549 24.102V23.994H156.271V24.03C156.271 26.082 157.855 27.18 160.591 27.18ZM167.508 16.974V14.94H166.23V16.974H167.508ZM167.508 27V18.108H166.23V27H167.508ZM170.936 27V22.698C170.936 20.412 172.07 19.098 174.23 19.098C176.264 19.098 177.146 20.16 177.146 21.996V27H178.424V21.816C178.424 19.71 177.182 17.928 174.68 17.928C172.466 17.928 171.206 19.386 170.9 20.898H170.81V18.108H169.658V27H170.936ZM184.734 27.18C187.218 27.18 189.054 25.902 189.054 24.048V23.922H187.776V24.048C187.776 25.344 186.804 26.118 184.716 26.118C182.358 26.118 181.332 24.912 181.26 22.914H189.09C189.144 22.68 189.18 22.41 189.18 22.086C189.18 19.44 187.326 17.928 184.716 17.928C181.854 17.928 180.054 19.854 180.054 22.554C180.054 25.38 181.872 27.18 184.734 27.18ZM184.698 18.99C186.786 18.99 187.974 19.98 187.974 21.852C187.974 21.942 187.974 22.032 187.974 22.122H181.26C181.35 20.178 182.394 18.99 184.698 18.99ZM194.781 27.18C197.085 27.18 198.741 26.298 198.741 24.624C198.741 23.184 197.715 22.536 195.807 22.266L193.629 21.96C192.153 21.744 191.685 21.42 191.685 20.502C191.685 19.44 192.459 18.99 194.331 18.99C196.599 18.99 197.301 19.71 197.301 21.042V21.132H198.579V21.096C198.579 19.008 196.923 17.928 194.367 17.928C191.919 17.928 190.425 18.918 190.425 20.484C190.425 21.96 191.451 22.59 193.071 22.806L195.447 23.148C196.923 23.382 197.481 23.688 197.481 24.624C197.481 25.65 196.797 26.118 194.799 26.118C192.621 26.118 191.739 25.596 191.739 24.102V23.994H190.461V24.03C190.461 26.082 192.045 27.18 194.781 27.18ZM204.326 27.18C206.63 27.18 208.286 26.298 208.286 24.624C208.286 23.184 207.26 22.536 205.352 22.266L203.174 21.96C201.698 21.744 201.23 21.42 201.23 20.502C201.23 19.44 202.004 18.99 203.876 18.99C206.144 18.99 206.846 19.71 206.846 21.042V21.132H208.124V21.096C208.124 19.008 206.468 17.928 203.912 17.928C201.464 17.928 199.97 18.918 199.97 20.484C199.97 21.96 200.996 22.59 202.616 22.806L204.992 23.148C206.468 23.382 207.026 23.688 207.026 24.624C207.026 25.65 206.342 26.118 204.344 26.118C202.166 26.118 201.284 25.596 201.284 24.102V23.994H200.006V24.03C200.006 26.082 201.59 27.18 204.326 27.18Z" fill="white"/>
<rect x="0.5" y="0.5" width="225" height="42" rx="7.5" stroke="#415C5C"/>
</svg>
