<svg width="24" height="24" viewBox="0 0 24 24" fill="none" xmlns="http://www.w3.org/2000/svg">
<g clip-path="url(#clip0_40_2029)">
<path fill-rule="evenodd" clip-rule="evenodd" d="M24.0089 12.0044C24.0089 5.37508 18.6338 0 12.0044 0C5.37508 0 0 5.37508 0 12.0044C0 17.9957 4.38923 22.9622 10.1289 23.8638V15.4753H7.08009V12.0044H10.1289V9.35908C10.1289 6.35077 11.9217 4.68794 14.6633 4.68794C15.9766 4.68794 17.3508 4.92259 17.3508 4.92259V7.87689H15.8365C14.3459 7.87689 13.8799 8.802 13.8799 9.7524V12.0043H17.2089L16.6771 15.4752H13.8798V23.8637C19.6195 22.9638 24.0088 17.9972 24.0088 12.0043L24.0089 12.0044Z" fill="white"/>
</g>
<defs>
<clipPath id="clip0_40_2029">
<rect width="24" height="24" fill="white"/>
</clipPath>
</defs>
</svg>
