<svg width="123" height="40" viewBox="0 0 123 40" fill="none" xmlns="http://www.w3.org/2000/svg">
<path fill-rule="evenodd" clip-rule="evenodd" d="M10.3513 10.3513C8.54938 12.1532 5.44816 13.3333 0 13.3333V20C6.2185 20 11.4506 18.6801 15.0654 15.0654C18.6801 11.4506 20 6.2185 20 0H13.3333C13.3333 5.44816 12.1532 8.54938 10.3513 10.3513Z" fill="white"/>
<path fill-rule="evenodd" clip-rule="evenodd" d="M10.3513 29.6487C8.54938 27.8468 5.44816 26.6667 0 26.6667V20C6.2185 20 11.4506 21.3199 15.0654 24.9346C18.6801 28.5494 20 33.7815 20 40H13.3333C13.3333 34.5518 12.1532 31.4506 10.3513 29.6487Z" fill="white"/>
<path fill-rule="evenodd" clip-rule="evenodd" d="M29.6487 10.3513C31.4506 12.1532 34.5518 13.3333 40 13.3333V20C33.7815 20 28.5494 18.6801 24.9346 15.0654C21.3199 11.4506 20 6.2185 20 0H26.6667C26.6667 5.44816 27.8467 8.54938 29.6487 10.3513Z" fill="white"/>
<path d="M69.5069 29.7059V27.7941H57.0766V10H55V29.7059H69.5069Z" fill="white"/>
<path d="M78.9296 30C83.6678 30 86.7973 26.8529 86.7973 22.4412C86.7973 18.0294 83.6678 14.8824 78.9296 14.8824C74.2208 14.8824 71.0913 18.0294 71.0913 22.4412C71.0913 26.8529 74.2208 30 78.9296 30ZM78.9296 28.1176C74.9519 28.1176 73.1386 25.9706 73.1386 22.4412C73.1386 18.9412 74.9519 16.7647 78.9296 16.7647C82.9073 16.7647 84.7499 18.9412 84.7499 22.4412C84.7499 25.9706 82.9073 28.1176 78.9296 28.1176Z" fill="white"/>
<path d="M95.7608 28.5294C99.095 28.5294 101.23 26.8824 101.815 24.6471H101.961V28.4412C101.961 32.0588 100.499 33.2059 96.7552 33.2059C93.5379 33.2059 91.8416 32.2059 91.8416 29.6471H89.765C89.765 33.0294 92.7482 35 96.6674 35C101.025 35 104.038 33.1176 104.038 28.3235V15.1765H102.166V18.9118H102.02C101.435 16.3235 99.0365 14.8824 95.9947 14.8824C91.5491 14.8824 88.8291 17.7353 88.8291 21.7059C88.8291 25.6765 91.4613 28.5294 95.7608 28.5294ZM90.9056 21.7059C90.9056 18 93.2162 16.7353 96.4627 16.7353C99.7969 16.7353 101.961 18.4412 101.961 21.2941V21.7941C101.961 24.8824 99.8847 26.6765 96.3165 26.6765C93.187 26.6765 90.9056 25.4118 90.9056 21.7059Z" fill="white"/>
<path d="M114.632 30C119.37 30 122.5 26.8529 122.5 22.4412C122.5 18.0294 119.37 14.8824 114.632 14.8824C109.923 14.8824 106.794 18.0294 106.794 22.4412C106.794 26.8529 109.923 30 114.632 30ZM114.632 28.1176C110.655 28.1176 108.841 25.9706 108.841 22.4412C108.841 18.9412 110.655 16.7647 114.632 16.7647C118.61 16.7647 120.453 18.9412 120.453 22.4412C120.453 25.9706 118.61 28.1176 114.632 28.1176Z" fill="white"/>
</svg>
