<svg width="226" height="44" viewBox="0 0 226 44" fill="none" xmlns="http://www.w3.org/2000/svg">
<rect x="1" y="1.80151" width="108" height="41" rx="7" fill="#27393C"/>
<path d="M40.426 27.9815C43.774 27.9815 45.862 26.1275 45.862 22.8155V15.7415H44.584V22.7615C44.584 25.5155 43.234 26.7215 40.426 26.7215C37.618 26.7215 36.268 25.5155 36.268 22.7615V15.7415H34.99V22.8155C34.99 26.1275 37.078 27.9815 40.426 27.9815ZM51.8356 27.9815C54.1396 27.9815 55.7956 27.0995 55.7956 25.4255C55.7956 23.9855 54.7696 23.3375 52.8616 23.0675L50.6836 22.7615C49.2076 22.5455 48.7396 22.2215 48.7396 21.3035C48.7396 20.2415 49.5136 19.7915 51.3856 19.7915C53.6536 19.7915 54.3556 20.5115 54.3556 21.8435V21.9335H55.6336V21.8975C55.6336 19.8095 53.9776 18.7295 51.4216 18.7295C48.9736 18.7295 47.4796 19.7195 47.4796 21.2855C47.4796 22.7615 48.5056 23.3915 50.1256 23.6075L52.5016 23.9495C53.9776 24.1835 54.5356 24.4895 54.5356 25.4255C54.5356 26.4515 53.8516 26.9195 51.8536 26.9195C49.6756 26.9195 48.7936 26.3975 48.7936 24.9035V24.7955H47.5156V24.8315C47.5156 26.8835 49.0996 27.9815 51.8356 27.9815ZM61.7045 27.9815C64.1885 27.9815 66.0245 26.7035 66.0245 24.8495V24.7235H64.7465V24.8495C64.7465 26.1455 63.7745 26.9195 61.6865 26.9195C59.3285 26.9195 58.3025 25.7135 58.2305 23.7155H66.0605C66.1145 23.4815 66.1505 23.2115 66.1505 22.8875C66.1505 20.2415 64.2965 18.7295 61.6865 18.7295C58.8245 18.7295 57.0245 20.6555 57.0245 23.3555C57.0245 26.1815 58.8425 27.9815 61.7045 27.9815ZM61.6685 19.7915C63.7565 19.7915 64.9445 20.7815 64.9445 22.6535C64.9445 22.7435 64.9445 22.8335 64.9445 22.9235H58.2305C58.3205 20.9795 59.3645 19.7915 61.6685 19.7915ZM69.1236 27.8015V22.9775C69.1236 20.9795 69.9156 19.8455 71.7156 19.8455C73.2636 19.8455 73.8936 20.5835 73.8936 22.0955V22.7795H75.1716V21.8975C75.1716 20.2415 74.2716 18.7295 72.2196 18.7295C70.3656 18.7295 69.3576 19.9175 69.0876 21.3395H68.9976V18.9095H67.8456V27.8015H69.1236Z" fill="white"/>
<path d="M140.452 27.8015C142.756 27.8015 144.232 26.5595 144.232 24.4715C144.232 22.9235 143.278 21.8255 141.424 21.5195V21.4115C143.08 21.1595 143.854 20.1155 143.854 18.7295C143.854 16.8215 142.432 15.7415 140.272 15.7415H133.936V27.8015H140.452ZM135.214 16.9115H140.164C141.802 16.9115 142.576 17.5595 142.576 18.9635C142.576 20.3495 141.694 20.9975 140.056 20.9975H135.214V16.9115ZM135.214 22.0955H140.344C142.018 22.0955 142.936 22.7975 142.936 24.3455C142.936 25.9295 142.054 26.6315 140.344 26.6315H135.214V22.0955ZM149.495 27.9815C151.709 27.9815 152.987 26.5415 153.293 25.0295H153.383V27.8015H154.535V18.9095H153.257V23.2295C153.257 25.5155 152.123 26.8295 149.945 26.8295C147.893 26.8295 146.993 25.7675 146.993 23.9135V18.9095H145.715V24.1115C145.715 26.2175 146.957 27.9815 149.495 27.9815ZM160.591 27.9815C162.895 27.9815 164.551 27.0995 164.551 25.4255C164.551 23.9855 163.525 23.3375 161.617 23.0675L159.439 22.7615C157.963 22.5455 157.495 22.2215 157.495 21.3035C157.495 20.2415 158.269 19.7915 160.141 19.7915C162.409 19.7915 163.111 20.5115 163.111 21.8435V21.9335H164.389V21.8975C164.389 19.8095 162.733 18.7295 160.177 18.7295C157.729 18.7295 156.235 19.7195 156.235 21.2855C156.235 22.7615 157.261 23.3915 158.881 23.6075L161.257 23.9495C162.733 24.1835 163.291 24.4895 163.291 25.4255C163.291 26.4515 162.607 26.9195 160.609 26.9195C158.431 26.9195 157.549 26.3975 157.549 24.9035V24.7955H156.271V24.8315C156.271 26.8835 157.855 27.9815 160.591 27.9815ZM167.508 17.7755V15.7415H166.23V17.7755H167.508ZM167.508 27.8015V18.9095H166.23V27.8015H167.508ZM170.936 27.8015V23.4995C170.936 21.2135 172.07 19.8995 174.23 19.8995C176.264 19.8995 177.146 20.9615 177.146 22.7975V27.8015H178.424V22.6175C178.424 20.5115 177.182 18.7295 174.68 18.7295C172.466 18.7295 171.206 20.1875 170.9 21.6995H170.81V18.9095H169.658V27.8015H170.936ZM184.734 27.9815C187.218 27.9815 189.054 26.7035 189.054 24.8495V24.7235H187.776V24.8495C187.776 26.1455 186.804 26.9195 184.716 26.9195C182.358 26.9195 181.332 25.7135 181.26 23.7155H189.09C189.144 23.4815 189.18 23.2115 189.18 22.8875C189.18 20.2415 187.326 18.7295 184.716 18.7295C181.854 18.7295 180.054 20.6555 180.054 23.3555C180.054 26.1815 181.872 27.9815 184.734 27.9815ZM184.698 19.7915C186.786 19.7915 187.974 20.7815 187.974 22.6535C187.974 22.7435 187.974 22.8335 187.974 22.9235H181.26C181.35 20.9795 182.394 19.7915 184.698 19.7915ZM194.781 27.9815C197.085 27.9815 198.741 27.0995 198.741 25.4255C198.741 23.9855 197.715 23.3375 195.807 23.0675L193.629 22.7615C192.153 22.5455 191.685 22.2215 191.685 21.3035C191.685 20.2415 192.459 19.7915 194.331 19.7915C196.599 19.7915 197.301 20.5115 197.301 21.8435V21.9335H198.579V21.8975C198.579 19.8095 196.923 18.7295 194.367 18.7295C191.919 18.7295 190.425 19.7195 190.425 21.2855C190.425 22.7615 191.451 23.3915 193.071 23.6075L195.447 23.9495C196.923 24.1835 197.481 24.4895 197.481 25.4255C197.481 26.4515 196.797 26.9195 194.799 26.9195C192.621 26.9195 191.739 26.3975 191.739 24.9035V24.7955H190.461V24.8315C190.461 26.8835 192.045 27.9815 194.781 27.9815ZM204.326 27.9815C206.63 27.9815 208.286 27.0995 208.286 25.4255C208.286 23.9855 207.26 23.3375 205.352 23.0675L203.174 22.7615C201.698 22.5455 201.23 22.2215 201.23 21.3035C201.23 20.2415 202.004 19.7915 203.876 19.7915C206.144 19.7915 206.846 20.5115 206.846 21.8435V21.9335H208.124V21.8975C208.124 19.8095 206.468 18.7295 203.912 18.7295C201.464 18.7295 199.97 19.7195 199.97 21.2855C199.97 22.7615 200.996 23.3915 202.616 23.6075L204.992 23.9495C206.468 24.1835 207.026 24.4895 207.026 25.4255C207.026 26.4515 206.342 26.9195 204.344 26.9195C202.166 26.9195 201.284 26.3975 201.284 24.9035V24.7955H200.006V24.8315C200.006 26.8835 201.59 27.9815 204.326 27.9815Z" fill="white"/>
<rect x="0.5" y="1.30151" width="225" height="42" rx="7.5" stroke="#415C5C"/>
</svg>
