<svg width="23" height="22" viewBox="0 0 23 22" fill="none" xmlns="http://www.w3.org/2000/svg">
<path d="M12.6129 21.8752H10.6989C10.6324 21.8432 10.5719 21.8 10.5201 21.7475C10.473 21.6989 10.4334 21.6437 10.4025 21.5836C10.3399 21.4647 10.305 21.3317 10.2681 21.1911C10.2153 20.9902 10.1609 20.7824 10.0189 20.616C9.70541 20.5513 9.40979 20.4668 9.1239 20.385C8.82793 20.3005 8.54846 20.2206 8.25599 20.1627C8.09708 20.3767 7.9397 20.5412 7.77497 20.6656C7.67583 20.7412 7.56751 20.8041 7.45261 20.8526C7.33157 20.9032 7.20315 20.9338 7.07232 20.9434L5.92616 20.2836L5.41015 19.9864C5.38154 19.8367 5.37252 19.684 5.38333 19.532C5.39488 19.3938 5.41392 19.2562 5.44037 19.12C5.47719 18.9322 5.50075 18.742 5.51089 18.5509C5.24552 18.3663 5.02722 18.1264 4.81613 17.8944C4.63316 17.6933 4.444 17.4854 4.22648 17.3168C4.10206 17.3401 3.97943 17.3721 3.8595 17.4125C3.66479 17.4727 3.46347 17.535 3.26011 17.535C3.1692 17.5357 3.07878 17.5216 2.99245 17.4931C2.94414 17.477 2.85 17.3813 2.7202 17.2164C2.60126 17.0653 2.4605 16.8661 2.32385 16.6555C2.1837 16.4395 2.05881 16.2281 1.97217 16.0601C1.87411 15.87 1.82631 15.7385 1.83399 15.6798C1.8798 15.3298 2.11892 15.1086 2.35027 14.8945C2.45468 14.8033 2.55153 14.7038 2.63986 14.5969C2.44662 14.0756 2.30884 13.5015 2.16136 12.8592C2.11099 12.8475 2.06238 12.8363 2.01955 12.8264C1.54557 12.7174 1.2595 12.6516 1.09246 12.4518C1.0091 12.3521 0.954949 12.2178 0.922058 12.0293C0.89088 11.8505 0.876953 11.6171 0.876953 11.2726C0.881218 11.1107 0.885474 10.9488 0.889722 10.7869L0.889898 10.78C0.893978 10.6252 0.898049 10.4704 0.902112 10.3156C0.937754 10.2532 0.984281 10.1976 1.03949 10.1516C1.09312 10.1072 1.1524 10.0703 1.21578 10.0416C1.34271 9.98242 1.48486 9.94777 1.62234 9.91424C1.84512 9.85995 2.05551 9.80865 2.16146 9.66079L2.30295 9.11837C2.40682 8.7199 2.51073 8.32146 2.61468 7.92304C2.46357 7.81172 2.27021 7.65888 2.1155 7.46375C2.04036 7.37016 1.97758 7.26729 1.92868 7.15768C1.87742 7.04096 1.84543 6.9167 1.83396 6.78974C1.98147 6.47574 2.57786 5.32093 2.81615 5.17793C2.92059 5.09092 3.05344 5.04864 3.2223 5.04864C3.42232 5.04864 3.63898 5.10702 3.84846 5.16348C3.98059 5.20291 4.11532 5.23298 4.25167 5.25349C4.35718 5.11245 4.47337 4.97972 4.59921 4.85648C4.72304 4.73333 4.85501 4.61509 4.98265 4.50075C5.16714 4.34092 5.34345 4.17188 5.51089 3.99427C5.50245 3.82767 5.45453 3.66664 5.40816 3.5109C5.36594 3.38254 5.33468 3.25084 5.31473 3.11719C5.30638 3.05061 5.30527 2.98332 5.3114 2.9165C5.31814 2.84575 5.33442 2.77624 5.35978 2.70986C5.38288 2.64904 5.47888 2.5553 5.63742 2.43878C5.81428 2.31177 5.99881 2.19579 6.18996 2.09151C6.39183 1.97867 6.60062 1.87868 6.81509 1.79214C6.9054 1.75584 6.99774 1.72481 7.09164 1.69921C7.16287 1.67872 7.23636 1.66715 7.31044 1.66478C7.34069 1.66407 7.37084 1.66829 7.39972 1.6773C7.62956 1.75643 7.80879 1.94362 7.98214 2.12468C8.07441 2.22653 8.17438 2.32114 8.28118 2.40765L10.0441 1.95433C10.1019 1.80929 10.1432 1.66808 10.1832 1.53151C10.2343 1.3569 10.2826 1.192 10.3583 1.0459C10.4349 0.891493 10.5528 0.761346 10.6989 0.669922L12.4642 0.693142L12.6129 0.695106C12.6754 0.741121 12.7317 0.794922 12.7806 0.855204C12.8265 0.912247 12.8664 0.973902 12.8995 1.03918C12.9664 1.1686 13.0116 1.30865 13.0595 1.45724C13.1149 1.62877 13.1721 1.80614 13.2677 1.97961C13.4441 1.99739 13.8374 2.10166 14.2177 2.2025C14.5744 2.29709 14.9113 2.38634 15.0071 2.38634C15.0151 2.38697 15.0232 2.38564 15.0306 2.38246L15.9121 1.62693C15.9362 1.62074 15.9611 1.61777 15.986 1.61812C16.0928 1.61812 16.2477 1.66181 16.4463 1.74799C16.6448 1.83682 16.8382 1.93666 17.0256 2.04703C17.4322 2.28188 17.7959 2.53241 17.9016 2.60912C17.9182 2.74151 17.9347 2.87391 17.9513 3.00633L17.9596 3.07254L17.9772 3.21357C17.9574 3.2963 17.9332 3.37789 17.9047 3.45801C17.8671 3.5627 17.8366 3.66982 17.8135 3.77864C17.7914 3.89834 17.7956 3.99361 17.8261 4.06985C17.9788 4.14591 18.1179 4.2465 18.238 4.3676C18.3609 4.49118 18.4775 4.62096 18.5872 4.75642C18.7352 4.93287 18.8881 5.11528 19.0602 5.25349C19.2571 5.24495 19.4358 5.19672 19.6087 5.15008C19.7918 5.10067 19.9647 5.05403 20.151 5.05403C20.2245 5.05383 20.2979 5.0616 20.3697 5.0772C20.426 5.11638 20.5245 5.23236 20.6472 5.40381C20.7699 5.57527 20.9033 5.78337 21.0233 5.99028C21.1416 6.19007 21.2464 6.39754 21.337 6.61131C21.4202 6.81616 21.4507 6.96099 21.4275 7.04158C21.3481 7.31718 21.1426 7.50775 20.9439 7.69205C20.8366 7.78592 20.7372 7.88844 20.6467 7.99859C20.7608 8.26769 20.8555 8.54458 20.9301 8.82716C21.0051 9.1052 21.0708 9.41109 21.1252 9.73632C21.1809 9.74946 21.2346 9.76203 21.282 9.77309C21.8076 9.89583 22.0971 9.96346 22.2536 10.179C22.4087 10.3926 22.4349 10.7511 22.4349 11.4741C22.4349 11.5359 22.4384 11.6087 22.4421 11.6856C22.4477 11.8024 22.454 11.9349 22.4485 12.0505C22.4422 12.1828 22.4213 12.2743 22.3846 12.3303C22.3424 12.3928 22.289 12.447 22.2271 12.49C22.16 12.5372 22.088 12.5768 22.0123 12.6084C21.8548 12.6764 21.674 12.7251 21.4992 12.7724C21.3648 12.8087 21.2379 12.8429 21.1253 12.8844C21.1027 13.1058 21.0003 13.4193 20.9012 13.7224C20.8393 13.9118 20.7809 14.0906 20.7407 14.2479C20.7219 14.3184 20.7074 14.39 20.6974 14.4623C20.6888 14.5152 20.6887 14.5692 20.6971 14.6221C20.7384 14.698 20.7912 14.767 20.8538 14.8267C20.917 14.8898 20.99 14.9503 21.0606 15.0089C21.1521 15.081 21.2382 15.1597 21.3183 15.2443C21.3946 15.3241 21.4495 15.422 21.4778 15.5287C21.4893 15.5769 21.4845 15.6433 21.4638 15.7263C21.4388 15.8197 21.4058 15.9108 21.3654 15.9986C21.2615 16.2237 21.1407 16.4405 21.0039 16.6473C20.8724 16.8521 20.7277 17.0481 20.5708 17.2341C20.5125 17.3032 20.4498 17.3684 20.3829 17.4291C20.3252 17.4798 20.2784 17.5098 20.2436 17.5183C20.1756 17.5349 20.1059 17.5432 20.0359 17.543C19.8607 17.543 19.6972 17.4952 19.5242 17.4444C19.3681 17.3987 19.2066 17.3512 19.0348 17.342C18.8452 17.596 18.6051 17.8075 18.373 18.0119C18.1655 18.1949 17.9509 18.384 17.7757 18.6012C17.802 18.7193 17.8368 18.8353 17.8798 18.9484C17.9764 19.2255 18.0859 19.5395 18.0024 19.8101C17.9855 19.8647 17.8893 19.9585 17.724 20.0814C17.539 20.2159 17.3467 20.3403 17.148 20.4538C16.7541 20.6815 16.2506 20.9247 16.0191 20.9249C16 20.9252 15.9809 20.9229 15.9624 20.9182C15.691 20.8434 15.4936 20.6395 15.3028 20.4422C15.2106 20.3419 15.1112 20.2485 15.0054 20.1627L14.73 20.2414L13.2425 20.6664C13.1608 20.8178 13.1147 20.9858 13.0701 21.1483C12.987 21.4515 12.9084 21.7378 12.6129 21.8752L12.6129 21.8752ZM11.0455 2.88615H11.0011L10.5634 2.94262L10.2204 2.98689C10.1322 3.00704 10.0443 3.02718 9.95924 3.04632C9.39433 3.17421 8.86092 3.29502 8.35673 3.49058C6.02765 4.39392 4.26567 6.24533 3.3954 8.70376C2.38459 11.5592 3.1882 13.8643 4.04034 15.2951C5.05843 17.0047 6.73795 18.4289 8.53302 19.1049C8.97915 19.2728 9.4354 19.4124 9.89908 19.523C10.5127 19.6677 11.0808 19.7411 11.5874 19.7411C11.8297 19.7423 12.0716 19.7232 12.3107 19.6842C14.1592 19.3716 15.621 18.8478 16.7799 18.0829C17.9726 17.2956 18.8832 16.2295 19.5638 14.8236C19.8358 14.2618 20.0561 13.5924 20.2186 12.834C20.3938 12.0166 20.4081 11.1215 20.2612 10.1734C20.1973 9.76387 20.1064 9.35897 19.989 8.96142C19.8854 8.60796 19.7602 8.26118 19.6142 7.92304C18.1834 4.62801 15.2204 2.88615 11.0455 2.88615ZM11.684 19.1565C11.2445 19.1565 10.8056 19.1247 10.3707 19.0616C9.94028 18.9991 9.51505 18.9048 9.09854 18.7795C8.68846 18.6561 8.28877 18.5005 7.90321 18.3141C7.52435 18.1309 7.16209 17.9152 6.82048 17.6694C6.77187 17.6343 6.72226 17.5989 6.67423 17.5646H6.67411C6.4955 17.4372 6.31082 17.3054 6.14178 17.1632C5.9713 17.0238 5.81862 16.8639 5.68718 16.6872V16.662L7.15856 16.6394L7.32417 16.6369H14.5269L17.6498 16.6872L17.4987 16.8383C17.3778 17.0293 17.1922 17.2173 16.9314 17.4129C16.7037 17.5837 16.4476 17.7387 16.2216 17.8754L16.2195 17.8766C16.1652 17.9095 16.1137 17.9406 16.0632 17.9716C15.409 18.3696 14.7004 18.6702 13.9595 18.8638C13.2169 19.0593 12.452 19.1577 11.684 19.1564V19.1565ZM18.0276 16.3095H14.5017V16.2843L14.5588 16.1806C14.6321 16.0472 14.7054 15.9139 14.7788 15.7806C14.9777 15.7703 15.1292 15.7456 15.255 15.7029C15.4007 15.6535 15.5085 15.58 15.5847 15.4783V15.4532L15.5371 15.4511L15.0054 15.428C15.0015 15.3458 14.9976 15.2637 14.9937 15.1815C14.9892 15.0874 14.9847 14.9932 14.9802 14.8991C15.1268 14.6995 15.2985 14.5301 15.4646 14.3663C15.6749 14.1589 15.8924 13.9445 16.0632 13.6651C15.9458 13.6481 15.8324 13.6103 15.7282 13.5535C15.6487 13.5038 15.5751 13.4451 15.509 13.3785L15.5088 13.3784C15.4776 13.3495 15.4454 13.3195 15.4085 13.2873H15.2322C15.244 13.1728 15.2559 13.0583 15.2678 12.9437L15.2726 12.8969L15.3076 12.557H15.3097C15.4615 12.557 15.5652 12.5144 15.6757 12.4629L15.6911 12.4557C15.7866 12.411 15.8768 12.3688 15.9982 12.3688C16.0369 12.3689 16.0756 12.3729 16.1135 12.3807C16.1971 12.3973 16.2819 12.4642 16.3568 12.5233C16.4248 12.577 16.4892 12.6277 16.5417 12.6325L16.5529 12.625L16.5604 12.6199L16.6172 12.5822C16.6691 12.4627 16.7574 12.3626 16.8694 12.2962C16.9295 12.2588 16.9943 12.2297 17.0622 12.2097C17.1327 12.1888 17.2058 12.1782 17.2794 12.1781C17.3717 12.178 17.4632 12.1954 17.549 12.2296C17.5155 13.2355 17.5314 14.382 17.549 15.3776L17.2468 15.4154L16.9446 15.4532V15.4784C16.9614 15.5036 16.9782 15.5287 16.995 15.5539C17.0947 15.7002 17.3029 15.7291 17.5043 15.7569C17.6262 15.7738 17.7413 15.7896 17.8261 15.8309C17.8932 15.9904 17.9604 16.15 18.0276 16.3095ZM13.4944 16.3095H9.96853C9.99054 16.208 10.0277 16.1104 10.0787 16.02C10.104 15.9738 10.134 15.9303 10.1682 15.8902C10.1966 15.8556 10.2314 15.827 10.2707 15.8058C10.3745 15.7697 10.481 15.7422 10.5892 15.7235C10.7714 15.6882 10.8918 15.6651 11.0263 15.4532L10.7241 15.4176L10.5981 15.4028C10.5931 14.9833 10.6492 14.2319 10.7845 13.5733C10.8984 13.0188 11.1071 12.3443 11.4544 12.2799C11.5394 12.2636 11.6258 12.2551 11.7124 12.2544C11.8007 12.2535 11.8887 12.2656 11.9734 12.2904C12.047 12.3125 12.1163 12.3468 12.1784 12.3918C12.2383 12.436 12.2911 12.4889 12.3352 12.5488C12.3814 12.6119 12.4206 12.6799 12.4519 12.7515C12.5841 13.0478 12.6306 13.4411 12.6755 13.8215C12.6942 13.9801 12.7135 14.144 12.7388 14.2947C12.7484 14.352 12.7603 14.4152 12.7729 14.4821V14.4825C12.8295 14.7816 12.8997 15.1537 12.8396 15.4028L12.69 15.4228L12.4618 15.4532V15.4784L12.4643 15.4844C12.4803 15.5243 12.4963 15.5643 12.5122 15.6043L12.8831 15.7239L13.2929 15.8561C13.3487 15.9816 13.4044 16.1072 13.4603 16.2327L13.4687 16.2517L13.4944 16.3095ZM8.8856 16.3095H5.35978C5.38142 16.2105 5.41605 16.1148 5.46276 16.0249C5.50054 15.9521 5.56128 15.8549 5.63681 15.8058C5.74697 15.7665 5.86138 15.7405 5.97766 15.7281C6.19215 15.6972 6.37739 15.6705 6.4679 15.4532L6.26642 15.428L5.86347 15.3776C5.86767 14.9873 5.87187 14.5969 5.87606 14.2066C5.88026 13.8162 5.88446 13.4258 5.88866 13.0355C5.88815 12.9748 5.87949 12.8949 5.87032 12.8104C5.85558 12.6957 5.84762 12.5803 5.8465 12.4647C5.84854 12.3388 5.87055 12.2537 5.91382 12.2044C5.98023 12.1751 6.052 12.1599 6.12458 12.1598C6.30704 12.1598 6.46163 12.255 6.55919 12.3348C6.61777 12.3831 6.67108 12.4373 6.71823 12.4968C6.75827 12.5464 6.79257 12.6004 6.82048 12.6577L6.83448 12.6437L6.9464 12.5318C7.09612 12.4657 7.22179 12.4349 7.34197 12.4349C7.4788 12.4349 7.60155 12.4736 7.75694 12.5226C7.81826 12.5419 7.88163 12.5619 7.95378 12.5822L8.0448 12.9007L8.0527 12.9284L8.08688 13.0481L8.15525 13.2873H7.95378C7.89387 13.3914 7.81006 13.4797 7.70926 13.545C7.60926 13.6069 7.48689 13.6449 7.32417 13.6651C7.4022 13.8067 7.49759 13.938 7.60815 14.0561C7.71342 14.1705 7.82864 14.2749 7.94005 14.3759C8.09116 14.5128 8.24746 14.6543 8.38194 14.8236V15.4281H7.77749C7.93167 15.6361 8.11904 15.6895 8.30027 15.7412C8.5431 15.8103 8.77258 15.8758 8.8856 16.3095ZM10.2132 14.3467C9.83674 14.3467 9.56045 14.3253 9.34368 14.2795C9.12584 14.2335 8.96536 14.1622 8.83866 14.0552C8.59054 13.8456 8.48653 13.5083 8.3291 12.9976V12.9972C8.29835 12.8975 8.26654 12.7943 8.23088 12.6829C8.18874 12.5613 8.13532 12.4439 8.07132 12.3323C8.00057 12.2002 7.93378 12.0754 7.91653 11.9398C7.89737 11.7892 7.94124 11.6411 8.05459 11.4741C8.45068 11.3893 8.85174 11.3298 9.25536 11.2958C9.66894 11.2574 10.0996 11.2343 10.516 11.212C11.1664 11.1773 11.8388 11.1413 12.4619 11.0458L14.6278 10.8695C14.6461 10.8691 14.6644 10.8688 14.682 10.8688C14.9634 10.8688 15.1451 10.9287 15.2377 11.0518C15.273 11.0998 15.2959 11.1558 15.3045 11.2148C15.3142 11.2803 15.3147 11.3469 15.3059 11.4125C15.2898 11.5533 15.2438 11.7127 15.1992 11.8668C15.1643 11.9879 15.1281 12.113 15.1062 12.2295L15.0204 12.8444L14.9551 13.3125C14.9229 13.3894 14.8799 13.4612 14.8275 13.526C14.7742 13.5912 14.7134 13.6498 14.6462 13.7005C14.4984 13.8085 14.3346 13.8926 14.1608 13.9498C13.761 14.0893 13.2871 14.1416 12.9654 14.1689V14.1186C12.8593 13.8445 12.8276 13.5508 12.797 13.2668C12.7498 12.8278 12.7052 12.4132 12.3862 12.154C12.291 12.0788 12.1783 12.0288 12.0586 12.0088C11.9119 11.9847 11.7634 11.9743 11.6148 11.9777C11.6034 11.9777 11.5919 11.9777 11.5803 11.9777C11.4795 11.9772 11.379 11.9887 11.2809 12.0121C11.1993 12.0318 11.1211 12.0638 11.0489 12.1068C10.9182 12.1881 10.8139 12.3056 10.7486 12.445C10.6847 12.5728 10.6381 12.7261 10.602 12.9274C10.5701 13.105 10.5513 13.2916 10.5315 13.489C10.5022 13.7792 10.472 14.0793 10.3967 14.3451C10.3327 14.3461 10.271 14.3467 10.2132 14.3467ZM8.28118 11.1215L8.27838 11.1201L8.27541 11.1186L8.23081 11.0963V10.3911C8.27527 10.3383 8.32983 10.2948 8.39128 10.2633C8.46034 10.2297 8.53334 10.205 8.60857 10.1896C8.60441 10.1312 8.60021 10.0728 8.59598 10.0144L8.59545 10.007C8.59141 9.95033 8.58736 9.89369 8.58332 9.83708L8.44949 9.81796L8.44032 9.81666L8.4071 9.81187L8.35673 9.78669L8.30636 9.7615L8.28118 9.35855L8.25599 8.9556C8.29125 8.89921 8.33658 8.88957 8.38061 8.88022C8.4197 8.87658 8.45606 8.85857 8.48265 8.82968V8.20007C8.54642 8.07957 8.64345 7.97992 8.7622 7.91296C8.8857 7.8376 9.02702 7.79641 9.17167 7.79361C9.25604 7.79259 9.33951 7.81095 9.41566 7.84726C9.49681 7.88742 9.56591 7.94831 9.61595 8.02378C9.64953 8.16649 9.68311 8.3092 9.71669 8.45191L9.79224 8.43932L9.8678 8.42673C9.86621 8.32322 9.85979 8.21817 9.85359 8.11655C9.83959 7.88758 9.82637 7.67119 9.8678 7.4949L9.89298 7.48652L9.89658 7.48533L9.94335 7.46972L10.5604 7.41935L11.1774 7.36898C11.3718 7.33999 11.5681 7.32527 11.7647 7.32493C12.0128 7.32419 12.2603 7.35006 12.5029 7.4021C12.7252 7.44972 12.941 7.52372 13.1458 7.62254C13.3352 7.71388 13.5112 7.83065 13.6691 7.9696C13.8185 8.10136 13.9465 8.25558 14.0484 8.42673C14.1584 8.61292 14.2105 8.82187 14.2657 9.04307C14.2975 9.17055 14.3305 9.30234 14.3758 9.4341C14.4678 9.4374 14.5629 9.48593 14.6509 9.57441C14.7385 9.66617 14.808 9.77365 14.8558 9.8912C14.9077 10.0107 14.9372 10.1388 14.9428 10.269C14.9456 10.397 14.9151 10.5002 14.8543 10.5674L11.5452 10.8463L8.28118 11.1215ZM14.3848 8.63014C14.3817 8.63036 14.3786 8.62968 14.3758 8.6282L14.1176 8.18067L13.998 7.97341C13.9218 7.87562 13.7966 7.79482 13.6753 7.71673C13.5193 7.61619 13.3581 7.5123 13.2929 7.36898L14.1403 6.90677L14.401 6.76455C14.3916 6.65155 14.3863 6.57915 14.3955 6.51732C14.407 6.4512 14.4349 6.38901 14.4765 6.33642L14.9615 6.07526L15.1927 5.95077L15.7861 5.63125L15.8479 5.63813L15.8995 5.64385L16.0128 5.65644C16.1641 5.72539 16.456 6.16879 16.6166 6.42696C16.8562 6.812 17.0612 7.19551 17.1209 7.3438L16.6248 7.63107L16.1639 7.89785C16.1388 7.87977 16.1146 7.8603 16.0916 7.83955C16.0719 7.81835 16.048 7.80142 16.0214 7.78979C15.9949 7.77817 15.9662 7.77209 15.9372 7.77193C15.8494 7.84879 15.4743 8.07344 15.149 8.25547C14.8259 8.43662 14.4553 8.63012 14.3848 8.63014Z" fill="white"/>
</svg>
