<svg version="1.2" xmlns="http://www.w3.org/2000/svg" viewBox="0 0 208 208" width="208" height="208">
	<title>telegram-svg</title>
	<style>
		.s0 { fill: #ffffff } 
	</style>
	<g id="SvgjsG1033">
		<g id="Layer">
			<path id="Layer" class="s0" d="m176.9 32.3c-23.2 9.6-122.6 50.8-150.1 62-18.4 7.2-7.7 13.9-7.7 13.9 0 0 15.8 5.4 29.3 9.5 13.4 4 20.6-0.5 20.6-0.5l63.4-42.7c22.5-15.3 17.1-2.7 11.7 2.7-11.7 11.7-31 30.1-47.2 45-7.2 6.3-3.6 11.7-0.5 14.4 11.7 9.8 43.6 30.1 45.4 31.4 9.5 6.7 28.2 16.4 31-4l11.3-70.6c3.6-23.8 7.2-45.8 7.6-52.1 1.4-15.3-14.8-9-14.8-9z"/>
		</g>
	</g>
</svg>