<svg width="18" height="15" viewBox="0 0 18 15" fill="none" xmlns="http://www.w3.org/2000/svg">
<path fill-rule="evenodd" clip-rule="evenodd" d="M15.1602 3.55187C15.029 3.64991 14.9552 3.80187 14.9634 3.96069C14.9685 4.10285 14.9726 4.245 14.9726 4.38912C14.9726 8.99307 11.5831 13.7568 5.91096 13.7568C4.80195 13.7568 3.70934 13.546 2.68233 13.1392C3.92049 12.9431 5.10021 12.4235 6.08521 11.6303C6.24817 11.498 6.30864 11.2843 6.23792 11.0921C6.1672 10.8999 5.97861 10.7696 5.76439 10.7646C4.8081 10.746 3.94201 10.2205 3.43773 9.39994C3.78314 9.39013 4.15521 9.33816 4.434 9.26072C4.65949 9.19797 4.81118 8.99699 4.804 8.77346C4.79581 8.54895 4.62976 8.35875 4.40017 8.31071C3.38238 8.09993 2.63314 7.29698 2.37997 6.19403C2.67106 6.24992 2.94575 6.26756 3.09745 6.27148C3.32088 6.29501 3.52691 6.146 3.6007 5.9411C3.67348 5.73717 3.59865 5.5107 3.41518 5.38423C2.70694 4.89599 1.94846 3.9852 1.94846 2.89793C1.94846 2.63029 1.98331 2.36559 2.04993 2.1097C3.82107 3.995 6.23792 5.13324 8.80032 5.2656C8.97252 5.27442 9.11499 5.20971 9.2185 5.09403C9.32203 4.97834 9.36303 4.82147 9.33024 4.67245C9.27898 4.44991 9.25336 4.21952 9.25336 3.98618C9.25336 2.34598 10.5335 1.01165 12.1068 1.01165C12.8981 1.01165 13.634 1.34008 14.1773 1.93813C14.2982 2.07147 14.4889 2.13323 14.6693 2.09597C14.9296 2.04303 15.1858 1.97636 15.438 1.89499C15.2883 2.04009 15.1233 2.16951 14.9439 2.28029C14.742 2.4048 14.658 2.645 14.74 2.86068C14.822 3.07637 15.0536 3.20676 15.2873 3.17833C15.4205 3.16167 15.5528 3.14206 15.684 3.11755C15.5179 3.27147 15.3437 3.41657 15.1602 3.55187ZM17.535 1.81852C17.3833 1.65675 17.1394 1.61167 16.9324 1.70382C16.8955 1.72049 16.8586 1.73715 16.8206 1.75382C16.9754 1.49107 17.1015 1.20969 17.1927 0.914597C17.2542 0.718519 17.1814 0.506747 17.0103 0.383222C16.8381 0.26067 16.6064 0.250869 16.425 0.361651C15.8961 0.686167 15.3273 0.924397 14.7328 1.0744C14.0225 0.407728 13.0816 0.03125 12.1068 0.03125C9.96878 0.03125 8.22839 1.80577 8.22839 3.98618C8.22839 4.06854 8.23045 4.15089 8.23557 4.23226C5.92327 3.94598 3.78622 2.73911 2.29901 0.859692C2.19446 0.727339 2.02535 0.659691 1.85213 0.667538C1.67789 0.680281 1.52209 0.776358 1.43906 0.923416C1.10186 1.52146 0.923511 2.20479 0.923511 2.89794C0.923511 3.64991 1.18385 4.3303 1.56104 4.90089C1.38475 4.97932 1.26174 5.14893 1.26174 5.34697V5.39207C1.26174 6.6058 1.71376 7.6656 2.47325 8.38227C2.39126 8.40777 2.31643 8.45385 2.25596 8.51561C2.19603 8.57812 2.15406 8.65442 2.13412 8.73706C2.11418 8.8197 2.11696 8.90588 2.14219 8.98719C2.5122 10.1764 3.39264 11.0892 4.4873 11.5029C3.37215 12.1068 2.04891 12.346 0.816914 12.2039C0.57605 12.1696 0.358754 12.3068 0.275734 12.5166C0.191689 12.7274 0.269591 12.9666 0.464326 13.0941C2.09504 14.1686 3.97892 14.7372 5.91097 14.7372C12.2247 14.7372 15.9976 9.47542 15.9976 4.38912C15.9976 4.31461 15.9966 4.24108 15.9945 4.16756C16.6167 3.67147 17.1517 3.07931 17.5894 2.4048C17.7093 2.21951 17.6878 1.98029 17.535 1.81852Z" fill="white"/>
</svg>
