<svg width="154" height="52" viewBox="0 0 154 52" fill="none" xmlns="http://www.w3.org/2000/svg">
<path d="M57.3059 13.8359H48.8249C48.2445 13.8359 47.751 14.26 47.6604 14.8364L44.2303 36.7133C44.1621 37.145 44.4945 37.5342 44.9298 37.5342H48.9787C49.559 37.5342 50.0526 37.11 50.1431 36.5325L51.0682 30.6319C51.1575 30.0543 51.6523 29.6302 52.2314 29.6302H54.9162C60.5028 29.6302 63.7271 26.9107 64.5691 21.5216C64.9486 19.1639 64.5852 17.3114 63.4877 16.014C62.2824 14.5894 60.1444 13.8359 57.3059 13.8359ZM58.2843 21.826C57.8205 24.8873 55.4953 24.8873 53.2471 24.8873H51.9673L52.8651 19.1701C52.9184 18.8246 53.2161 18.5701 53.5633 18.5701H54.1498C55.6814 18.5701 57.1261 18.5701 57.8726 19.4483C58.3178 19.9722 58.4542 20.7507 58.2843 21.826Z" fill="white"/>
<path d="M82.6573 21.7274H78.596C78.25 21.7274 77.9512 21.9819 77.8978 22.3275L77.718 23.4701L77.434 23.056C76.5548 21.7723 74.5942 21.3432 72.6374 21.3432C68.1495 21.3432 64.3163 24.7625 63.5698 29.5591C63.1816 31.9517 63.7335 34.2396 65.0827 35.8351C66.3203 37.3021 68.0912 37.9134 70.1981 37.9134C73.8142 37.9134 75.8194 35.5744 75.8194 35.5744L75.6384 36.7096C75.5702 37.1437 75.9025 37.5329 76.3353 37.5329H79.9936C80.5752 37.5329 81.0663 37.1088 81.158 36.5312L83.353 22.5483C83.4224 22.1179 83.0913 21.7274 82.6573 21.7274ZM76.9963 29.6788C76.6044 32.0128 74.7629 33.5797 72.4141 33.5797C71.2348 33.5797 70.2923 33.1992 69.6872 32.4782C69.087 31.7621 68.8588 30.7429 69.0498 29.6077C69.4156 27.2937 71.2881 25.6757 73.6009 25.6757C74.7542 25.6757 75.6917 26.0611 76.3093 26.7884C76.9281 27.5232 77.1736 28.5486 76.9963 29.6788Z" fill="white"/>
<path d="M104.287 21.7274H100.206C99.8164 21.7274 99.4506 21.922 99.2299 22.2476L93.6011 30.5882L91.2151 22.5732C91.0651 22.0717 90.605 21.7274 90.0842 21.7274H86.0737C85.5863 21.7274 85.2478 22.2064 85.4028 22.668L89.8982 35.9386L85.6719 41.9402C85.3396 42.413 85.6744 43.0629 86.2486 43.0629H90.3247C90.7117 43.0629 91.0738 42.8733 91.2933 42.554L104.867 22.8439C105.192 22.3723 104.859 21.7274 104.287 21.7274Z" fill="white"/>
<path d="M117.799 13.8359H109.317C108.738 13.8359 108.244 14.26 108.153 14.8364L104.723 36.7133C104.655 37.145 104.988 37.5342 105.42 37.5342H109.773C110.177 37.5342 110.523 37.2373 110.587 36.8331L111.56 30.6319C111.649 30.0543 112.144 29.6302 112.723 29.6302H115.407C120.995 29.6302 124.218 26.9107 125.061 21.5216C125.442 19.1639 125.076 17.3114 123.978 16.014C122.774 14.5894 120.637 13.8359 117.799 13.8359ZM118.777 21.826C118.315 24.8873 115.99 24.8873 113.74 24.8873H112.462L113.361 19.1701C113.414 18.8246 113.709 18.5701 114.058 18.5701H114.644C116.174 18.5701 117.62 18.5701 118.367 19.4483C118.812 19.9722 118.947 20.7507 118.777 21.826Z" fill="white"/>
<path d="M143.149 21.7274H139.09C138.742 21.7274 138.445 21.9819 138.393 22.3275L138.213 23.4701L137.928 23.056C137.049 21.7723 135.09 21.3432 133.133 21.3432C128.645 21.3432 124.813 24.7625 124.066 29.5591C123.68 31.9517 124.229 34.2396 125.578 35.8351C126.818 37.3021 128.587 37.9134 130.693 37.9134C134.31 37.9134 136.315 35.5744 136.315 35.5744L136.134 36.7096C136.066 37.1437 136.398 37.5329 136.833 37.5329H140.49C141.069 37.5329 141.563 37.1088 141.653 36.5312L143.85 22.5483C143.917 22.1179 143.584 21.7274 143.149 21.7274ZM137.488 29.6788C137.099 32.0128 135.255 33.5797 132.906 33.5797C131.729 33.5797 130.784 33.1992 130.179 32.4782C129.579 31.7621 129.353 30.7429 129.541 29.6077C129.91 27.2936 131.78 25.6757 134.093 25.6757C135.246 25.6757 136.183 26.0611 136.801 26.7884C137.422 27.5232 137.668 28.5486 137.488 29.6788Z" fill="white"/>
<path d="M147.937 14.4359L144.456 36.7133C144.388 37.1449 144.72 37.5341 145.153 37.5341H148.652C149.234 37.5341 149.728 37.11 149.817 36.5324L153.249 14.6567C153.318 14.225 152.985 13.8346 152.553 13.8346H148.634C148.288 13.8358 147.99 14.0903 147.937 14.4359Z" fill="white"/>
<path d="M9.01045 41.7856L9.65902 37.6415L8.21431 37.6078H1.31567L6.10987 7.02846C6.12475 6.93615 6.17312 6.85007 6.2438 6.78895C6.31449 6.72782 6.40502 6.69414 6.49926 6.69414H18.1313C21.993 6.69414 24.6579 7.5025 26.0493 9.09802C26.7016 9.84651 27.117 10.6287 27.3179 11.4894C27.5288 12.3926 27.5325 13.4717 27.3266 14.7878L27.3117 14.8838V15.7271L27.964 16.0988C28.5134 16.392 28.9499 16.7276 29.2847 17.1118C29.8428 17.7518 30.2036 18.5651 30.3562 19.5294C30.5137 20.5211 30.4616 21.7013 30.2036 23.0373C29.906 24.5742 29.4249 25.9127 28.7751 27.008C28.1773 28.0172 27.4159 28.8543 26.5119 29.503C25.6488 30.1192 24.6232 30.587 23.4637 30.8864C22.3402 31.1808 21.0592 31.3293 19.6542 31.3293H18.7489C18.1016 31.3293 17.4728 31.5638 16.9793 31.9842C16.4845 32.4133 16.1571 32.9996 16.0567 33.6408L15.9885 34.0138L14.8426 41.3178L14.7905 41.586C14.7769 41.6708 14.7533 41.7132 14.7186 41.7419C14.6876 41.7681 14.643 41.7856 14.5996 41.7856H9.01045Z" fill="white"/>
<path d="M28.5816 14.981C28.5469 15.2043 28.5072 15.4326 28.4626 15.6671C26.9286 23.5898 21.6805 26.3268 14.9778 26.3268H11.5651C10.7454 26.3268 10.0546 26.9256 9.92691 27.7389L8.17962 38.8864L7.68482 42.0462C7.60173 42.5801 8.01096 43.0617 8.54668 43.0617H14.5996C15.3164 43.0617 15.9252 42.5377 16.0381 41.8267L16.0976 41.5173L17.2373 34.242L17.3104 33.8428C17.422 33.1293 18.0322 32.6053 18.7489 32.6053H19.6542C25.5186 32.6053 30.1094 30.2102 31.4512 23.2792C32.0117 20.3838 31.7215 17.9662 30.2384 16.2659C29.7895 15.7532 29.2327 15.3278 28.5816 14.981Z" fill="white"/>
<path d="M26.9769 14.3374C26.7425 14.2688 26.5007 14.2064 26.2527 14.1503C26.0034 14.0954 25.748 14.0468 25.4851 14.0043C24.5649 13.8546 23.5567 13.7835 22.4766 13.7835H13.3595C13.135 13.7835 12.9217 13.8347 12.7307 13.927C12.3103 14.1303 11.9978 14.5308 11.9222 15.021L9.98268 27.3785L9.92688 27.739C10.0546 26.9257 10.7453 26.3269 11.565 26.3269H14.9778C21.6805 26.3269 26.9286 23.5887 28.4626 15.6672C28.5084 15.4327 28.5469 15.2044 28.5816 14.9811C28.1935 14.774 27.7731 14.5969 27.3204 14.4459C27.2088 14.4085 27.0935 14.3723 26.9769 14.3374Z" fill="white"/>
<path d="M11.9222 15.021C11.9979 14.5307 12.3104 14.1303 12.7308 13.9282C12.923 13.8359 13.1351 13.7847 13.3595 13.7847H22.4767C23.5568 13.7847 24.565 13.8558 25.4851 14.0055C25.748 14.0479 26.0035 14.0966 26.2528 14.1515C26.5008 14.2076 26.7426 14.27 26.977 14.3386C27.0935 14.3735 27.2089 14.4097 27.3217 14.4459C27.7744 14.5968 28.1947 14.7752 28.5829 14.9811C29.0392 12.0532 28.5792 10.0598 27.0055 8.25468C25.2706 6.26745 22.1394 5.41667 18.1326 5.41667H6.50055C5.68209 5.41667 4.98392 6.01546 4.85743 6.83006L0.0123871 37.7238C-0.0831001 38.335 0.385655 38.8864 0.998261 38.8864H8.17964L9.98274 27.3785L11.9222 15.021Z" fill="white"/>
</svg>
