<svg width="86" height="52" viewBox="0 0 86 52" fill="none" xmlns="http://www.w3.org/2000/svg">
<path fill-rule="evenodd" clip-rule="evenodd" d="M85.2537 27.9683C85.2537 21.8588 82.3172 17.0381 76.7047 17.0381C71.0684 17.0381 67.6583 21.8588 67.6583 27.9206C67.6583 35.104 71.6842 38.7315 77.4625 38.7315C80.2806 38.7315 82.4119 38.0871 84.0222 37.1802V32.4072C82.4119 33.2186 80.5647 33.7198 78.2203 33.7198C75.9232 33.7198 73.8865 32.9084 73.626 30.0923H85.2063C85.2063 29.782 85.2537 28.5411 85.2537 27.9683ZM73.555 25.7011C73.555 23.0044 75.189 21.8827 76.681 21.8827C78.1255 21.8827 79.6648 23.0044 79.6648 25.7011H73.555Z" fill="white"/>
<path fill-rule="evenodd" clip-rule="evenodd" d="M58.517 17.0381C56.1963 17.0381 54.7043 18.1359 53.8755 18.8995L53.5676 17.4199H48.3577V45.2466L54.2781 43.9818L54.3017 37.2279C55.1543 37.8484 56.4094 38.7314 58.4934 38.7314C62.7324 38.7314 66.5925 35.2949 66.5925 27.7296C66.5688 20.8087 62.6613 17.0381 58.517 17.0381ZM57.0962 33.4811C55.6989 33.4811 54.8701 32.98 54.3017 32.3595L54.2781 23.5055C54.8938 22.8134 55.7463 22.3361 57.0962 22.3361C59.2512 22.3361 60.7431 24.7704 60.7431 27.8967C60.7431 31.0946 59.2749 33.4811 57.0962 33.4811Z" fill="white"/>
<path fill-rule="evenodd" clip-rule="evenodd" d="M40.2111 15.63L46.1552 14.3412V9.49663L40.2111 10.7615V15.63Z" fill="white"/>
<path d="M46.1552 17.4437H40.2111V38.3257H46.1552V17.4437Z" fill="white"/>
<path fill-rule="evenodd" clip-rule="evenodd" d="M33.8405 19.2097L33.4616 17.4437H28.3464V38.3257H34.2668V24.1737C35.664 22.3361 38.0321 22.6702 38.7663 22.9327V17.4437C38.0085 17.1573 35.2377 16.6323 33.8405 19.2097Z" fill="white"/>
<path fill-rule="evenodd" clip-rule="evenodd" d="M21.9999 12.265L16.2216 13.5059L16.1979 32.6219C16.1979 36.1539 18.8266 38.7552 22.3315 38.7552C24.2734 38.7552 25.6942 38.3973 26.4757 37.9677V33.1231C25.7179 33.4333 21.9762 34.5311 21.9762 30.9991V22.527H26.4757V17.4437H21.9762L21.9999 12.265Z" fill="white"/>
<path fill-rule="evenodd" clip-rule="evenodd" d="M5.99143 23.5055C5.99143 22.5748 6.74924 22.2168 8.00436 22.2168C9.80416 22.2168 12.0776 22.7657 13.8774 23.7442V18.1359C11.9118 17.3483 9.96993 17.0381 8.00436 17.0381C3.19701 17.0381 0 19.5678 0 23.7919C0 30.3787 8.99899 29.3286 8.99899 32.1686C8.99899 33.2664 8.05173 33.6243 6.72556 33.6243C4.75999 33.6243 2.24975 32.8129 0.260497 31.7151V37.395C2.46288 38.3496 4.68895 38.7553 6.72556 38.7553C11.6513 38.7553 15.0378 36.2972 15.0378 32.0254C15.0141 24.9136 5.99143 26.1784 5.99143 23.5055Z" fill="white"/>
</svg>
