<svg width="146" height="52" viewBox="0 0 146 52" fill="none" xmlns="http://www.w3.org/2000/svg">
<path d="M0 2.16667H31.5172V17.9523H15.7586L0 2.16667ZM0 17.9523H15.7586L31.5172 33.7379H0V17.9523ZM0 33.7379H15.7586V49.5235L0 33.7379Z" fill="white"/>
<path d="M49.3003 14.62H62.0402V18.6753H54.1223V24.3108H62.0402V28.2765H54.1223V35.4922H49.3003V14.62ZM64.6595 21.12H69.214V24.1316C69.452 23.0967 69.9386 22.3023 70.6726 21.7461C71.4253 21.1691 72.2609 20.8816 73.173 20.8816C73.6495 20.8816 74.0468 20.9221 74.3633 21.0008V25.2352C73.9091 25.1803 73.452 25.1507 72.9942 25.1456C71.744 25.1456 70.8024 25.5523 70.1665 26.3676C69.5327 27.1628 69.214 28.3552 69.214 29.9463V35.4922H64.6617V21.12H64.6595ZM81.553 35.88C80.1644 35.88 78.9531 35.5514 77.9214 34.8956C76.9091 34.2399 76.1045 33.3089 75.5998 32.2119C75.0641 31.0599 74.7945 29.7563 74.7945 28.3061C74.7945 26.8746 75.0742 25.5819 75.6294 24.4299C76.1499 23.317 76.9762 22.3759 78.0108 21.7165C79.0613 21.0608 80.2624 20.7321 81.6128 20.7321C82.6244 20.7321 83.5285 20.9517 84.3216 21.3886C85.1147 21.827 85.7102 22.4236 86.1075 23.1776V21.12H90.6317V35.4922H86.1075V33.4642C85.7102 34.1799 85.0952 34.7656 84.2618 35.2235C83.4283 35.6663 82.4968 35.8916 81.553 35.88ZM82.863 32.0927C83.9539 32.0927 84.7974 31.7352 85.393 31.0195C85.9885 30.3038 86.2863 29.3988 86.2863 28.3061C86.2863 27.2329 85.9885 26.338 85.393 25.6223C84.7974 24.9066 83.9539 24.5491 82.863 24.5491C81.8299 24.5491 80.9978 24.8965 80.3626 25.5927C79.7476 26.2889 79.4398 27.1924 79.4398 28.3061C79.4398 29.4198 79.7476 30.3334 80.3626 31.0491C80.9978 31.7453 81.8313 32.0927 82.863 32.0927ZM93.817 21.12H98.3715V23.2072C98.6902 22.4705 99.2049 21.874 99.9187 21.4183C100.654 20.9625 101.507 20.7321 102.479 20.7321C104.741 20.7321 106.24 21.6161 106.974 23.3863C107.377 22.5839 108.009 21.9202 108.79 21.4782C109.625 20.9748 110.584 20.717 111.558 20.7321C114.951 20.7321 116.648 22.6793 116.648 26.5764V35.4922H112.064V27.4113C112.064 26.4384 111.885 25.7227 111.528 25.2648C111.17 24.8084 110.635 24.5787 109.92 24.5787C109.147 24.5787 108.551 24.8474 108.134 25.384C107.718 25.9011 107.509 26.8046 107.509 28.0974V35.4922H102.925V27.3816C102.925 26.4081 102.747 25.7018 102.39 25.2648C102.054 24.8084 101.527 24.5787 100.813 24.5787C100.019 24.5787 99.4133 24.8474 98.9966 25.384C98.5798 25.9011 98.3715 26.8046 98.3715 28.0974V35.4922H93.8184V21.12H93.817ZM133.757 27.5608C133.757 28.1761 133.716 28.8427 133.636 29.5584H123.041C123.081 30.493 123.398 31.2073 123.993 31.7056C124.589 32.2018 125.394 32.4509 126.404 32.4509C127.814 32.4509 128.707 32.0226 129.083 31.1683H133.548C133.329 32.5802 132.556 33.722 131.226 34.5974C129.917 35.4518 128.309 35.88 126.404 35.88C123.944 35.88 122.009 35.2134 120.6 33.8816C119.211 32.5491 118.516 30.6916 118.516 28.3061C118.516 26.7555 118.833 25.4136 119.468 24.2804C120.082 23.1487 121.028 22.2329 122.177 21.6566C123.349 21.0413 124.708 20.7321 126.257 20.7321C127.724 20.7321 129.024 21.0203 130.155 21.5974C131.305 22.1744 132.189 22.979 132.804 24.0125C133.44 25.0474 133.757 26.2297 133.757 27.5608ZM129.26 26.7259C129.241 25.7718 128.973 25.0453 128.456 24.5491C127.941 24.0529 127.196 23.8038 126.224 23.8038C125.252 23.8038 124.478 24.0717 123.902 24.609C123.347 25.1261 123.06 25.831 123.039 26.7259H129.26ZM135.765 21.12H140.319V24.1316C140.557 23.0967 141.044 22.3023 141.778 21.7461C142.49 21.1843 143.371 20.8795 144.278 20.8816C144.754 20.8816 145.152 20.9221 145.469 21.0008V25.2352C145.014 25.1803 144.557 25.1507 144.099 25.1456C142.849 25.1456 141.908 25.5523 141.272 26.3676C140.636 27.1628 140.319 28.3552 140.319 29.9463V35.4922H135.765V21.12Z" fill="white"/>
</svg>
