<svg width="122" height="52" viewBox="0 0 122 52" fill="none" xmlns="http://www.w3.org/2000/svg">
<path d="M52.0796 27.7876C52.0796 33.5545 47.5835 37.804 42.0659 37.804C36.5482 37.804 32.0521 33.5545 32.0521 27.7876C32.0521 21.9802 36.5482 17.7713 42.0659 17.7713C47.5835 17.7713 52.0796 21.9802 52.0796 27.7876ZM47.6961 27.7876C47.6961 24.1839 45.0902 21.7182 42.0659 21.7182C39.0415 21.7182 36.4357 24.1839 36.4357 27.7876C36.4357 31.3552 39.0415 33.857 42.0659 33.857C45.0902 33.857 47.6961 31.3507 47.6961 27.7876Z" fill="white"/>
<path d="M73.6824 27.7876C73.6824 33.5545 69.1863 37.804 63.6686 37.804C58.151 37.804 53.6549 33.5545 53.6549 27.7876C53.6549 21.9847 58.151 17.7713 63.6686 17.7713C69.1863 17.7713 73.6824 21.9802 73.6824 27.7876ZM69.2988 27.7876C69.2988 24.1839 66.693 21.7182 63.6686 21.7182C60.6443 21.7182 58.0385 24.1839 58.0385 27.7876C58.0385 31.3552 60.6443 33.857 63.6686 33.857C66.693 33.857 69.2988 31.3507 69.2988 27.7876Z" fill="white"/>
<path d="M94.3853 18.3765V36.3589C94.3853 43.756 90.0377 46.7771 84.8981 46.7771C80.06 46.7771 77.1481 43.5302 76.05 40.8748L79.8665 39.2807C80.5461 40.9109 82.2113 42.8347 84.8936 42.8347C88.1835 42.8347 90.2223 40.798 90.2223 36.964V35.5234H90.0692C89.0881 36.7382 87.1979 37.7995 84.8126 37.7995C79.8215 37.7995 75.2489 33.4371 75.2489 27.8238C75.2489 22.1698 79.8215 17.7713 84.8126 17.7713C87.1934 17.7713 89.0836 18.8326 90.0692 20.0112H90.2223V18.381H94.3853V18.3765ZM90.5328 27.8238C90.5328 24.2968 88.188 21.7182 85.2041 21.7182C82.1798 21.7182 79.6459 24.2968 79.6459 27.8238C79.6459 31.3146 82.1798 33.857 85.2041 33.857C88.188 33.857 90.5328 31.3146 90.5328 27.8238Z" fill="white"/>
<path d="M101.248 7.83638V37.1899H96.9725V7.83638H101.248Z" fill="white"/>
<path d="M117.91 31.0843L121.312 33.3603C120.214 34.9906 117.568 37.7995 112.995 37.7995C107.324 37.7995 103.089 33.401 103.089 27.7832C103.089 21.8266 107.36 17.7668 112.505 17.7668C117.685 17.7668 120.218 21.9034 121.047 24.1388L121.501 25.2768L108.157 30.8224C109.179 32.832 110.767 33.8571 112.995 33.8571C115.227 33.8571 116.776 32.7552 117.91 31.0843ZM107.437 27.4806L116.357 23.764C115.866 22.5131 114.39 21.6415 112.653 21.6415C110.425 21.6415 107.324 23.615 107.437 27.4806Z" fill="white"/>
<path d="M15.868 25.1818V20.9323H30.1393C30.2788 21.6729 30.3508 22.549 30.3508 23.4974C30.3508 26.6856 29.4822 30.628 26.6829 33.4369C23.96 36.282 20.4811 37.7993 15.8725 37.7993C7.33047 37.7993 0.147583 30.8177 0.147583 22.2465C0.147583 13.6752 7.33047 6.6936 15.8725 6.6936C20.5981 6.6936 23.9645 8.55417 26.4938 10.9792L23.5055 13.9778C21.6917 12.2708 19.2344 10.9431 15.868 10.9431C9.63025 10.9431 4.75165 15.9874 4.75165 22.2465C4.75165 28.5055 9.63025 33.5498 15.868 33.5498C19.914 33.5498 22.2183 31.9196 23.6945 30.4383C24.8916 29.2371 25.6792 27.5211 25.9898 25.1773L15.868 25.1818Z" fill="white"/>
</svg>
